<?xml version="1.0" encoding="utf-8"?>
<!-- Generator: Adobe Illustrator 27.9.0, SVG Export Plug-In . SVG Version: 6.00 Build 0)  -->
<svg version="1.1" id="Gear" xmlns="http://www.w3.org/2000/svg" xmlns:xlink="http://www.w3.org/1999/xlink" x="0px" y="0px"
	 viewBox="0 0 32.71 32.71" style="enable-background:new 0 0 32.71 32.71;" xml:space="preserve">
<style type="text/css">
	.st0{fill:#FFFFFF;stroke:#000000;stroke-linecap:round;stroke-linejoin:round;stroke-miterlimit:10;}
</style>
<path class="st0" d="M31.49,13.48h-3.47c-0.29-1.2-0.76-2.32-1.39-3.35l2.45-2.45c0.34-0.34,0.34-0.88,0-1.22l-2.85-2.85
	c-0.34-0.34-0.88-0.34-1.22,0l-2.45,2.45c-1.03-0.62-2.15-1.09-3.35-1.39V1.21c0-0.48-0.39-0.86-0.86-0.86h-4.02
	c-0.48,0-0.86,0.39-0.86,0.86v3.47c-1.2,0.29-2.33,0.76-3.35,1.39L7.68,3.62c-0.34-0.34-0.88-0.34-1.22,0L3.62,6.46
	c-0.34,0.34-0.34,0.88,0,1.22l2.45,2.45c-0.62,1.03-1.09,2.15-1.39,3.35H1.21c-0.48,0-0.86,0.39-0.86,0.86v4.02
	c0,0.48,0.39,0.86,0.86,0.86h3.47c0.29,1.2,0.76,2.33,1.39,3.35l-2.45,2.45c-0.34,0.34-0.34,0.88,0,1.22l2.85,2.85
	c0.34,0.34,0.88,0.34,1.22,0l2.45-2.45c1.03,0.62,2.15,1.09,3.35,1.39v3.47c0,0.48,0.39,0.86,0.86,0.86h4.02
	c0.48,0,0.86-0.39,0.86-0.86v-3.47c1.2-0.29,2.33-0.76,3.35-1.39l2.45,2.45c0.34,0.34,0.88,0.34,1.22,0l2.85-2.85
	c0.34-0.34,0.34-0.88,0-1.22l-2.45-2.45c0.62-1.03,1.09-2.15,1.39-3.35h3.47c0.48,0,0.86-0.39,0.86-0.86v-4.02
	C32.35,13.87,31.97,13.48,31.49,13.48z M23.13,17.52c-0.47,2.85-2.77,5.15-5.62,5.62c-4.71,0.77-8.72-3.24-7.95-7.95
	c0.47-2.85,2.77-5.15,5.62-5.62C19.9,8.8,23.91,12.81,23.13,17.52z"/>
</svg>
