<?xml version="1.0" encoding="UTF-8"?>
<svg id="Gear" xmlns="http://www.w3.org/2000/svg" version="1.1" xmlns:xlink="http://www.w3.org/1999/xlink" viewBox="0 0 104.2 79.9">
  <defs>
    <style>
      .st0 {
        fill: none;
        stroke-miterlimit: 10;
        stroke-width: 2.5px;
      }

      .st0, .st1 {
        stroke: #000;
      }

      .st1 {
        stroke-linecap: round;
        stroke-linejoin: round;
      }
    </style>
  </defs>
  <rect class="st0" x=".8" y=".8" width="102.7" height="78.4" rx="1.4" ry="1.4"/>
  <rect class="st0" x="21.4" y="16.5" width="61.4" height="46.9" rx="1.2" ry="1.2"/>
  <path class="st1" d="M66.7,36.8h-3.5c-.3-1.2-.8-2.3-1.4-3.4l2.5-2.4c.3-.3.3-.9,0-1.2l-2.9-2.8c-.3-.3-.9-.3-1.2,0l-2.5,2.5c-1-.6-2.1-1.1-3.4-1.4v-3.5c0-.5-.4-.9-.9-.9h-4c-.5,0-.9.4-.9.9v3.5c-1.2.3-2.3.8-3.3,1.4l-2.4-2.5c-.3-.3-.9-.3-1.2,0l-2.8,2.8c-.3.3-.3.9,0,1.2l2.4,2.4c-.6,1-1.1,2.2-1.4,3.3h-3.5c-.5,0-.9.4-.9.9v4c0,.5.4.9.9.9h3.5c.3,1.2.8,2.3,1.4,3.4l-2.5,2.5c-.3.3-.3.9,0,1.2l2.9,2.9c.3.3.9.3,1.2,0l2.4-2.5c1,.6,2.2,1.1,3.3,1.4v3.5c0,.5.4.9.9.9h4c.5,0,.9-.4.9-.9v-3.5c1.2-.3,2.3-.8,3.4-1.4l2.5,2.5c.3.3.9.3,1.2,0l2.9-2.9c.3-.3.3-.9,0-1.2l-2.5-2.5c.6-1,1.1-2.1,1.4-3.4h3.5c.5,0,.9-.4.9-.9v-4c0-.5-.4-.9-.9-.9ZM58.3,40.8c-.5,2.9-2.8,5.1-5.6,5.6-4.7.8-8.7-3.2-7.9-7.9.5-2.8,2.8-5.2,5.6-5.6,4.7-.8,8.7,3.2,8,8Z"/>
</svg>