<?xml version="1.0" encoding="UTF-8" standalone="no"?>
<svg
   id="livetype"
   width="33.48917mm"
   height="10.583328mm"
   viewBox="0 0 94.937254 30.002348"
   version="1.1"
   sodipodi:docname="appstore-fr.svg"
   inkscape:version="1.4 (86a8ad7, 2024-10-11)"
   inkscape:export-filename="appstore-fr.png"
   inkscape:export-xdpi="96"
   inkscape:export-ydpi="96"
   xmlns:inkscape="http://www.inkscape.org/namespaces/inkscape"
   xmlns:sodipodi="http://sodipodi.sourceforge.net/DTD/sodipodi-0.dtd"
   xmlns="http://www.w3.org/2000/svg"
   xmlns:svg="http://www.w3.org/2000/svg">
  <sodipodi:namedview
     id="namedview27"
     pagecolor="#ffffff"
     bordercolor="#000000"
     borderopacity="0.25"
     inkscape:showpageshadow="2"
     inkscape:pageopacity="0.0"
     inkscape:pagecheckerboard="0"
     inkscape:deskcolor="#d1d1d1"
     inkscape:document-units="mm"
     inkscape:zoom="2.4402669"
     inkscape:cx="103.47229"
     inkscape:cy="97.325419"
     inkscape:window-width="3440"
     inkscape:window-height="1351"
     inkscape:window-x="-9"
     inkscape:window-y="-9"
     inkscape:window-maximized="1"
     inkscape:current-layer="livetype" />
  <defs
     id="defs1">
    <style
       id="style1">.cls-1{fill:#fff;}</style>
  </defs>
  <path
     d="M 87.792987,0 H 7.1513518 C 6.8811957,0 6.6110395,0 6.3333788,0 6.1007442,0 5.8756141,0 5.6429795,0.00750434 c -0.5027906,0 -1.0055816,0.05253038 -1.5008679,0.13507811 C 3.6468251,0.22513019 3.1665475,0.38272132 2.716287,0.61535585 2.2660268,0.84799041 1.8607924,1.1406596 1.5005841,1.500868 1.1403758,1.8535719 0.84020227,2.2663106 0.61507206,2.7165709 0.38994188,3.1668315 0.23235074,3.647109 0.149803,4.1423956 0.05975092,4.6376819 0.01472488,5.1404728 0.01472488,5.6432635 c 0,0.2326345 -0.00750434,0.4577647 -0.0150086769,0.6903992 V 23.676192 c 0,0.232635 0,0.457765 0.0150086769,0.690399 0,0.502791 0.05253038,1.005582 0.13507812,1.500868 0.0825477,0.495287 0.24013888,0.983068 0.47277341,1.425824 0.22513021,0.450262 0.52530379,0.855495 0.88551209,1.208201 0.3527039,0.360206 0.7654426,0.652875 1.2157028,0.88551 0.4502606,0.225131 0.9305382,0.390225 1.4258247,0.472773 0.4952863,0.08255 0.9980772,0.127574 1.5008679,0.13508 0.2326345,0 0.4577647,0.0075 0.6903992,0.0075 0.2776605,0 0.5478169,0 0.8179731,0 H 87.792987 c 0.270156,0 0.540314,0 0.810469,0 0.225131,0 0.46527,0 0.690401,-0.0075 0.50279,0 1.00558,-0.05253 1.500867,-0.13508 0.495286,-0.08255 0.983069,-0.247642 1.433329,-0.472773 0.45026,-0.225129 0.855495,-0.525304 1.215702,-0.88551 0.360209,-0.352706 0.652877,-0.765445 0.885512,-1.208201 0.225131,-0.45026 0.382722,-0.930537 0.46527,-1.425824 0.08255,-0.495286 0.127574,-0.998077 0.142581,-1.500868 0,-0.232634 0,-0.457764 0,-0.690399 0,-0.270156 0,-0.540312 0,-0.817973 V 7.1591401 c 0,-0.2776605 0,-0.5478166 0,-0.817973 0,-0.2326346 0,-0.4577647 0,-0.6903993 C 94.929604,5.1479772 94.884588,4.6451862 94.794537,4.1499 94.711989,3.6546134 94.554398,3.1743358 94.329267,2.7240753 93.863998,1.8235546 93.128573,1.0881293 92.228053,0.6228602 91.777793,0.39773001 91.297514,0.24013887 90.794724,0.1500868 90.299437,0.06753906 89.796647,0.02251302 89.293857,0.01500868 c -0.225131,0 -0.46527,-0.00750434 -0.690401,-0.00750434 -0.270155,0 -0.540313,0 -0.810469,0 v 0 z"
     id="path1"
     style="stroke-width:0.750435" />
  <path
     class="cls-1"
     d="m 6.3333788,29.364483 c -0.2251302,0 -0.4502604,0 -0.6753905,-0.0075 -0.4727735,0 -0.9380425,-0.04502 -1.4033116,-0.120068 C 3.8194249,29.161857 3.4066864,29.026779 3.0089562,28.824162 2.6187308,28.629047 2.2660268,28.366396 1.9583489,28.05872 1.6506709,27.751041 1.388019,27.398336 1.1929062,27.00811 0.99779341,26.617884 0.85521094,26.197642 0.7876719,25.762391 0.7126285,25.297121 0.66760244,24.824348 0.66009812,24.351575 c 0,-0.157591 -0.007504,-0.682895 -0.007504,-0.682895 V 6.3336627 c 0,0 0,-0.5177994 0.007504,-0.6678861 0,-0.4727734 0.045026,-0.9380425 0.12757378,-1.4033116 C 0.86271529,3.8272132 0.99779341,3.4069704 1.1929062,3.0167445 1.388019,2.6265189 1.6431666,2.273815 1.9583489,1.966137 2.2660268,1.6584591 2.6187308,1.3958072 3.0089562,1.2006944 3.3991821,1.0055815 3.8194249,0.86299908 4.2471723,0.79546003 4.7124414,0.72041661 5.1852148,0.67539058 5.6579883,0.67539058 h 0.6753905 c 0,0 82.2625742,-0.007504 82.2625742,-0.007504 h 0.682894 c 0.46527,0.0150088 0.930539,0.0525304 1.395806,0.13507812 0.435253,0.0750434 0.855496,0.2101215 1.253225,0.4127387 0.780452,0.39773 1.410816,1.0355989 1.816052,1.8160503 0.195111,0.3902256 0.330189,0.8104686 0.405233,1.2382161 0.07504,0.4652691 0.12007,0.9380425 0.127574,1.41832 0,0.2101217 0,0.4427563 0,0.6678864 0,0.2851649 0,0.5478169 0,0.8179731 V 22.880732 c 0,0.270156 0,0.540312 0,0.810469 0,0.247643 0,0.465269 0,0.697903 -0.0075,0.465269 -0.05253,0.930539 -0.127574,1.388303 -0.06754,0.435252 -0.210122,0.855495 -0.405233,1.253224 -0.195115,0.382723 -0.457766,0.735425 -0.765445,1.043104 -0.307676,0.307678 -0.660381,0.57033 -1.050607,0.765442 -0.397729,0.202617 -0.817972,0.337695 -1.253225,0.412739 -0.465267,0.07504 -0.930536,0.12007 -1.403309,0.12007 -0.217628,0 -0.450263,0.0075 -0.675391,0.0075 h -0.810469 c 0,0 -81.4521052,0 -81.4521052,0 z"
     id="path2"
     style="stroke-width:0.750435" />
  <g
     id="_Group_"
     transform="matrix(0.75043397,0,0,0.75043397,-2.8379686e-4,0)">
    <g
       id="_Group_2">
      <g
         id="_Group_3">
        <path
           id="_Path_"
           d="m 25,19.89 c 0.02,-1.76 0.95,-3.39 2.45,-4.32 -0.95,-1.36 -2.49,-2.19 -4.15,-2.24 -1.75,-0.18 -3.44,1.04 -4.33,1.04 -0.89,0 -2.28,-1.03 -3.75,-1 -1.94,0.06 -3.71,1.14 -4.65,2.84 -2.01,3.48 -0.51,8.6 1.42,11.41 0.96,1.38 2.09,2.92 3.56,2.86 1.44,-0.06 1.98,-0.92 3.72,-0.92 1.74,0 2.23,0.92 3.73,0.89 1.55,-0.03 2.52,-1.38 3.45,-2.78 0.69,-0.98 1.23,-2.07 1.58,-3.22 C 26.19,23.67 25,21.87 24.99,19.88 Z" />
        <path
           id="_Path_2"
           d="M 22.16,11.48 C 23,10.47 23.42,9.16 23.32,7.85 22.03,7.99 20.84,8.6 19.98,9.58 c -0.84,0.96 -1.27,2.22 -1.19,3.5 1.31,0.01 2.55,-0.57 3.37,-1.59 z" />
      </g>
    </g>
  </g>
  <g
     id="_Group_4"
     transform="matrix(0.75043397,0,0,0.75043397,-2.8379686e-4,0)">
    <path
       d="M 35.62,14.7 V 9.58 H 33.74 V 8.74 h 4.68 v 0.84 h -1.87 v 5.12 z"
       id="path3" />
    <path
       d="m 42.73,13.49 c -0.25,0.85 -1.07,1.4 -1.95,1.3 -1.13,0.03 -2.07,-0.86 -2.1,-1.99 0,-0.11 0,-0.22 0.02,-0.33 -0.15,-1.14 0.65,-2.18 1.78,-2.33 0.1,-0.01 0.2,-0.02 0.29,-0.02 1.25,0 2.01,0.86 2.01,2.27 V 12.7 H 39.6 v 0.05 c -0.06,0.66 0.43,1.23 1.09,1.29 0.04,0 0.08,0 0.11,0 0.43,0.05 0.86,-0.16 1.07,-0.55 z M 39.6,12.03 h 2.27 c 0.04,-0.6 -0.4,-1.12 -1,-1.16 -0.04,0 -0.07,0 -0.11,0 -0.64,0 -1.16,0.5 -1.17,1.14 0,0 0,0.02 0,0.03 z m 0.64,-2.58 1.04,-1.42 h 1.04 l -1.16,1.42 z"
       id="path4" />
    <path
       d="m 44.02,8.44 h 0.89 v 6.26 h -0.89 z"
       id="path5" />
    <path
       d="m 50.17,13.49 c -0.25,0.85 -1.07,1.4 -1.95,1.3 -1.13,0.03 -2.07,-0.86 -2.1,-1.99 0,-0.11 0,-0.22 0.02,-0.33 -0.15,-1.14 0.65,-2.18 1.78,-2.33 0.1,-0.01 0.2,-0.02 0.29,-0.02 1.25,0 2.01,0.86 2.01,2.27 v 0.31 h -3.18 v 0.05 c -0.06,0.66 0.43,1.23 1.09,1.29 0.04,0 0.08,0 0.11,0 0.43,0.05 0.86,-0.16 1.07,-0.55 z m -3.12,-1.46 h 2.27 c 0.04,-0.6 -0.4,-1.12 -1,-1.16 -0.04,0 -0.07,0 -0.11,0 -0.64,0 -1.16,0.5 -1.17,1.14 0,0 0,0.02 0,0.03 v 0 z m 0.64,-2.58 1.04,-1.42 h 1.04 l -1.16,1.42 z"
       id="path6" />
    <path
       d="m 54.37,11.67 c -0.12,-0.48 -0.57,-0.81 -1.06,-0.76 -0.74,0 -1.2,0.57 -1.2,1.53 0,0.96 0.46,1.56 1.2,1.56 0.49,0.06 0.95,-0.26 1.06,-0.74 h 0.86 c -0.12,0.95 -0.97,1.63 -1.92,1.53 -1.14,0.04 -2.1,-0.86 -2.13,-2 0,-0.12 0,-0.24 0.02,-0.35 -0.15,-1.12 0.64,-2.16 1.76,-2.31 0.11,-0.02 0.23,-0.02 0.35,-0.02 0.96,-0.09 1.81,0.6 1.93,1.56 h -0.86 z"
       id="path7" />
    <path
       d="m 56.41,8.44 h 0.88 v 2.48 h 0.07 c 0.24,-0.53 0.79,-0.85 1.37,-0.81 0.82,-0.04 1.52,0.58 1.56,1.4 0,0.09 0,0.19 -0.01,0.28 v 2.91 h -0.89 v -2.69 c 0,-0.72 -0.33,-1.08 -0.96,-1.08 -0.58,-0.05 -1.09,0.38 -1.13,0.96 0,0.06 0,0.12 0,0.18 v 2.63 h -0.89 z"
       id="path8" />
    <path
       d="m 61.41,13.43 c 0,-0.81 0.6,-1.28 1.67,-1.34 l 1.22,-0.07 v -0.39 c 0,-0.48 -0.31,-0.74 -0.92,-0.74 -0.5,0 -0.84,0.18 -0.94,0.5 h -0.86 c 0.09,-0.77 0.82,-1.27 1.84,-1.27 1.13,0 1.77,0.56 1.77,1.51 v 3.08 h -0.86 v -0.63 h -0.07 c -0.29,0.46 -0.81,0.73 -1.35,0.71 -0.75,0.08 -1.42,-0.47 -1.49,-1.21 0,-0.04 0,-0.09 0,-0.14 z m 2.89,-0.39 v -0.38 l -1.1,0.07 c -0.62,0.04 -0.9,0.25 -0.9,0.65 0,0.4 0.35,0.64 0.83,0.64 0.58,0.06 1.1,-0.37 1.16,-0.95 0,-0.01 0,-0.02 0,-0.04 v 0 z"
       id="path9" />
    <path
       d="m 66.58,10.2 h 0.86 v 0.69 h 0.07 c 0.2,-0.49 0.69,-0.8 1.22,-0.77 0.13,0 0.27,0.01 0.4,0.04 v 0.88 c -0.16,-0.03 -0.33,-0.05 -0.5,-0.05 -0.58,-0.05 -1.09,0.38 -1.15,0.96 0,0.03 0,0.07 0,0.1 v 2.66 h -0.89 v -4.5 z"
       id="path10" />
    <path
       d="m 69.93,15.15 h 0.91 c 0.08,0.33 0.45,0.54 1.05,0.54 0.74,0 1.18,-0.35 1.18,-0.95 V 13.88 H 73 c -0.28,0.49 -0.82,0.79 -1.39,0.76 -1.15,0 -1.86,-0.89 -1.86,-2.24 0,-1.35 0.72,-2.27 1.87,-2.27 0.58,-0.02 1.13,0.29 1.41,0.79 H 73.1 V 10.2 h 0.85 v 4.54 c 0,1.03 -0.81,1.68 -2.08,1.68 -1.12,0 -1.85,-0.5 -1.95,-1.27 z m 3.15,-2.76 c 0,-0.9 -0.46,-1.47 -1.22,-1.47 -0.76,0 -1.19,0.57 -1.19,1.47 0,0.9 0.43,1.47 1.19,1.47 0.76,0 1.22,-0.57 1.22,-1.47 z"
       id="path11" />
    <path
       d="m 79.18,13.49 c -0.25,0.85 -1.07,1.4 -1.95,1.3 -1.13,0.03 -2.07,-0.86 -2.1,-1.99 0,-0.11 0,-0.22 0.02,-0.33 -0.15,-1.14 0.65,-2.18 1.78,-2.33 0.1,-0.01 0.2,-0.02 0.29,-0.02 1.25,0 2.01,0.86 2.01,2.27 v 0.31 h -3.18 v 0.05 c -0.06,0.66 0.43,1.23 1.09,1.29 0.04,0 0.08,0 0.11,0 0.43,0.05 0.86,-0.16 1.07,-0.55 z m -3.13,-1.46 h 2.27 c 0.04,-0.6 -0.4,-1.12 -1,-1.16 -0.04,0 -0.07,0 -0.11,0 -0.64,0 -1.16,0.5 -1.17,1.14 0,0 0,0.02 0,0.03 v 0 z"
       id="path12" />
    <path
       d="m 80.43,10.2 h 0.86 v 0.69 h 0.07 c 0.2,-0.49 0.69,-0.8 1.22,-0.77 0.13,0 0.27,0.01 0.4,0.04 v 0.88 c -0.16,-0.03 -0.33,-0.05 -0.5,-0.05 -0.58,-0.05 -1.09,0.38 -1.15,0.96 0,0.03 0,0.07 0,0.1 v 2.66 h -0.89 v -4.5 z"
       id="path13" />
    <path
       d="m 86.16,12.45 c 0,-1.42 0.73,-2.32 1.87,-2.32 0.57,-0.03 1.11,0.28 1.38,0.79 h 0.07 V 8.45 h 0.89 v 6.26 H 89.52 V 14 h -0.07 c -0.29,0.5 -0.83,0.81 -1.41,0.79 -1.15,0 -1.87,-0.9 -1.87,-2.33 z m 0.92,0 c 0,0.96 0.45,1.53 1.2,1.53 0.75,0 1.21,-0.58 1.21,-1.53 0,-0.95 -0.47,-1.53 -1.21,-1.53 -0.74,0 -1.2,0.58 -1.2,1.53 z"
       id="path14" />
    <path
       d="m 91.57,13.43 c 0,-0.81 0.6,-1.28 1.67,-1.34 l 1.22,-0.07 v -0.39 c 0,-0.48 -0.31,-0.74 -0.92,-0.74 -0.5,0 -0.84,0.18 -0.94,0.5 h -0.86 c 0.09,-0.77 0.82,-1.27 1.84,-1.27 1.13,0 1.77,0.56 1.77,1.51 v 3.08 h -0.86 v -0.63 h -0.07 c -0.29,0.46 -0.81,0.73 -1.35,0.71 -0.75,0.08 -1.42,-0.47 -1.49,-1.21 0,-0.04 0,-0.09 0,-0.14 z m 2.89,-0.39 v -0.38 l -1.1,0.07 c -0.62,0.04 -0.9,0.25 -0.9,0.65 0,0.4 0.35,0.64 0.83,0.64 0.58,0.06 1.1,-0.37 1.16,-0.95 0,-0.01 0,-0.02 0,-0.04 v 0 z"
       id="path15" />
    <path
       d="m 96.74,10.2 h 0.86 v 0.72 h 0.07 c 0.23,-0.53 0.77,-0.85 1.34,-0.8 0.81,-0.06 1.51,0.54 1.57,1.35 0,0.11 0,0.22 -0.01,0.32 v 2.91 h -0.89 v -2.69 c 0,-0.72 -0.31,-1.08 -0.97,-1.08 -0.57,-0.03 -1.05,0.41 -1.08,0.98 0,0.05 0,0.11 0,0.16 v 2.63 h -0.89 z"
       id="path16" />
    <path
       d="m 103.58,10.11 c 1.01,0 1.67,0.47 1.76,1.27 h -0.85 c -0.08,-0.33 -0.41,-0.54 -0.91,-0.54 -0.5,0 -0.87,0.24 -0.87,0.59 0,0.27 0.23,0.44 0.72,0.55 l 0.75,0.17 c 0.86,0.2 1.26,0.57 1.26,1.23 0,0.85 -0.79,1.41 -1.87,1.41 -1.08,0 -1.77,-0.48 -1.85,-1.28 h 0.89 c 0.16,0.39 0.56,0.62 0.98,0.56 0.55,0 0.95,-0.25 0.95,-0.61 0,-0.27 -0.21,-0.44 -0.66,-0.55 l -0.79,-0.18 c -0.86,-0.2 -1.25,-0.59 -1.25,-1.26 0,-0.8 0.73,-1.36 1.75,-1.36 z"
       id="path17" />
  </g>
  <path
     d="m 26.407488,13.567846 h 1.395808 v 9.32039 h -1.395808 z"
     id="path18"
     style="stroke-width:0.750435" />
  <path
     d="m 29.484267,16.974817 0.765442,-3.406971 h 1.358286 l -0.923033,3.406971 h -1.193191 z"
     id="path19"
     style="stroke-width:0.750435" />
  <path
     d="m 36.876042,20.366778 h -3.549553 l -0.855495,2.521458 h -1.500867 l 3.361945,-9.32039 h 1.560901 l 3.361945,9.32039 h -1.530886 l -0.855493,-2.521458 z m -3.18184,-1.163172 H 36.50833 L 35.120027,15.11374 h -0.03752 z"
     id="path20"
     style="stroke-width:0.750435" />
  <path
     d="m 46.526623,19.488771 c 0,2.108719 -1.133155,3.467004 -2.836639,3.467004 -0.878009,0.04503 -1.710991,-0.412738 -2.138738,-1.185685 h -0.03002 v 3.361944 h -1.395808 v -9.04273 H 41.4762 v 1.133156 h 0.02252 c 0.442756,-0.765443 1.275738,-1.230712 2.161248,-1.200695 1.726,0 2.859155,1.36579 2.859155,3.467006 z m -1.43333,0 c 0,-1.373295 -0.712911,-2.28132 -1.793535,-2.28132 -1.080627,0 -1.786035,0.923034 -1.786035,2.28132 0,1.358285 0.720418,2.288823 1.786035,2.288823 1.065614,0 1.793535,-0.900521 1.793535,-2.288823 z"
     id="path21"
     style="stroke-width:0.750435" />
  <path
     d="m 54.000945,19.488771 c 0,2.108719 -1.133154,3.467004 -2.836639,3.467004 -0.878009,0.04503 -1.710991,-0.412738 -2.138737,-1.185685 h -0.03002 v 3.361944 H 47.59974 v -9.04273 h 1.350782 v 1.133156 h 0.02252 c 0.442756,-0.765443 1.275738,-1.230712 2.161248,-1.200695 1.726001,0 2.859155,1.36579 2.859155,3.467006 z m -1.433329,0 c 0,-1.373295 -0.712912,-2.28132 -1.793536,-2.28132 -1.080626,0 -1.786034,0.923034 -1.786034,2.28132 0,1.358285 0.720417,2.288823 1.786034,2.288823 1.065615,0 1.793536,-0.900521 1.793536,-2.288823 z"
     id="path22"
     style="stroke-width:0.750435" />
  <path
     d="m 58.946305,20.291735 c 0.10506,0.923034 0.998079,1.530885 2.22879,1.530885 1.230712,0 2.018667,-0.607851 2.018667,-1.440833 0,-0.720417 -0.510296,-1.155669 -1.718494,-1.455842 L 60.26707,18.633276 c -1.710991,-0.412739 -2.50645,-1.215703 -2.50645,-2.513954 0,-1.605929 1.403312,-2.709067 3.391962,-2.709067 1.98865,0 3.316918,1.103138 3.361943,2.709067 h -1.410816 c -0.08255,-0.930538 -0.855493,-1.493364 -1.97364,-1.493364 -1.118148,0 -1.891093,0.57033 -1.891093,1.395807 0,0.660382 0.48778,1.043104 1.688475,1.343277 l 1.028096,0.255148 c 1.913606,0.45026 2.709065,1.223207 2.709065,2.581493 0,1.741007 -1.388303,2.83664 -3.594577,2.83664 -2.063694,0 -3.459503,-1.065616 -3.549554,-2.754093 h 1.425824 z"
     id="path23"
     style="stroke-width:0.750435" />
  <path
     d="m 67.681358,14.483376 v 1.605928 h 1.290746 v 1.103138 h -1.290746 v 3.744666 c 0,0.585339 0.255146,0.855495 0.825476,0.855495 0.150087,0 0.307678,-0.01501 0.457766,-0.03002 v 1.095634 c -0.255148,0.04503 -0.5178,0.06754 -0.772948,0.06754 -1.373293,0 -1.913606,-0.517799 -1.913606,-1.831059 v -3.894752 h -0.990573 v -1.103138 h 0.990573 V 14.49088 h 1.403312 z"
     id="path24"
     style="stroke-width:0.750435" />
  <path
     d="m 69.715032,19.488771 c 0,-2.138738 1.260731,-3.482014 3.219364,-3.482014 1.958633,0 3.219361,1.343276 3.219361,3.482014 0,2.138736 -1.245721,3.482013 -3.219361,3.482013 -1.973643,0 -3.219364,-1.335772 -3.219364,-3.482013 z m 5.027909,0 c 0,-1.463347 -0.675391,-2.33385 -1.801041,-2.33385 -1.125651,0 -1.801042,0.870503 -1.801042,2.33385 0,1.463346 0.667887,2.333849 1.801042,2.333849 1.133154,0 1.801041,-0.855495 1.801041,-2.333849 z"
     id="path25"
     style="stroke-width:0.750435" />
  <path
     d="m 77.309425,16.089304 h 1.328269 v 1.155669 h 0.03002 c 0.187608,-0.74293 0.870502,-1.253225 1.635947,-1.230712 0.157591,0 0.322685,0.01501 0.480277,0.05253 v 1.305756 c -0.202618,-0.06003 -0.41274,-0.09005 -0.622861,-0.08255 -0.772948,-0.03002 -1.433329,0.57033 -1.463346,1.350781 0,0.07504 0,0.142583 0.0075,0.217626 v 4.02983 h -1.395817 v -6.791427 z"
     id="path26"
     style="stroke-width:0.750435" />
  <path
     d="m 87.215154,20.892082 c -0.187608,1.230712 -1.388303,2.078702 -2.926693,2.078702 -1.973643,0 -3.204354,-1.320764 -3.204354,-3.451996 0,-2.131233 1.230711,-3.512031 3.14432,-3.512031 1.913606,0 3.06177,1.290746 3.06177,3.35444 v 0.480277 h -4.795274 v 0.08255 c -0.08255,0.975564 0.630364,1.831059 1.60593,1.921111 0.07504,0 0.150087,0.0075 0.217625,0 0.675391,0.06003 1.313259,-0.322686 1.568407,-0.953051 h 1.320765 z m -4.712725,-2.033676 h 3.399466 c 0.05253,-0.900521 -0.637871,-1.673468 -1.53839,-1.718494 -0.04503,0 -0.08255,0 -0.127574,0 -0.95305,0 -1.725998,0.757938 -1.733502,1.71099 0,0 0,0.0075 0,0.01501 z"
     id="path27"
     style="stroke-width:0.750435" />
</svg>
