<?xml version="1.0" encoding="UTF-8"?><svg id="livetype" xmlns="http://www.w3.org/2000/svg" width="44.63mm" height="14.11mm" viewBox="0 0 126.52 40"><defs><style>.cls-1{fill:#fff;}</style></defs><path d="M116.99,0H9.53C9.17,0,8.81,0,8.44,0c-.31,0-.61,0-.92.01-.67,0-1.34.07-2,.18-.66.11-1.3.32-1.9.63-.6.31-1.14.7-1.62,1.18-.48.47-.88,1.02-1.18,1.62-.3.6-.51,1.24-.62,1.9C.08,6.18.02,6.85.02,7.52c0,.31-.01.61-.02.92v23.11c0,.31,0,.61.02.92,0,.67.07,1.34.18,2,.11.66.32,1.31.63,1.9.3.6.7,1.14,1.18,1.61.47.48,1.02.87,1.62,1.18.6.3,1.24.52,1.9.63.66.11,1.33.17,2,.18.31,0,.61.01.92.01.37,0,.73,0,1.09,0h107.45c.36,0,.72,0,1.08,0,.3,0,.62,0,.92-.01.67,0,1.34-.07,2-.18.66-.11,1.31-.33,1.91-.63.6-.3,1.14-.7,1.62-1.18.48-.47.87-1.02,1.18-1.61.3-.6.51-1.24.62-1.9.11-.66.17-1.33.19-2,0-.31,0-.61,0-.92,0-.36,0-.72,0-1.09V9.54c0-.37,0-.73,0-1.09,0-.31,0-.61,0-.92-.01-.67-.07-1.34-.19-2-.11-.66-.32-1.3-.62-1.9-.62-1.2-1.6-2.18-2.8-2.8-.6-.3-1.24-.51-1.91-.63-.66-.11-1.33-.17-2-.18-.3,0-.62-.01-.92-.01-.36,0-.72,0-1.08,0h0Z"/><path class="cls-1" d="M8.44,39.13c-.3,0-.6,0-.9-.01-.63,0-1.25-.06-1.87-.16-.58-.1-1.13-.28-1.66-.55-.52-.26-.99-.61-1.4-1.02-.41-.41-.76-.88-1.02-1.4-.26-.52-.45-1.08-.54-1.66-.1-.62-.16-1.25-.17-1.88,0-.21-.01-.91-.01-.91V8.44s0-.69.01-.89c0-.63.06-1.25.17-1.87.1-.58.28-1.14.54-1.66.26-.52.6-.99,1.02-1.4.41-.41.88-.76,1.4-1.02.52-.26,1.08-.45,1.65-.54.62-.1,1.25-.16,1.88-.16h.9s109.62-.01,109.62-.01h.91c.62.02,1.24.07,1.86.18.58.1,1.14.28,1.67.55,1.04.53,1.88,1.38,2.42,2.42.26.52.44,1.08.54,1.65.1.62.16,1.25.17,1.89,0,.28,0,.59,0,.89,0,.38,0,.73,0,1.09v20.93c0,.36,0,.72,0,1.08,0,.33,0,.62,0,.93-.01.62-.07,1.24-.17,1.85-.09.58-.28,1.14-.54,1.67-.26.51-.61.98-1.02,1.39-.41.41-.88.76-1.4,1.02-.53.27-1.09.45-1.67.55-.62.1-1.24.16-1.87.16-.29,0-.6.01-.9.01h-1.08s-108.54,0-108.54,0Z"/><g id="_Group_"><g id="_Group_2"><g id="_Group_3"><path id="_Path_" d="M25,19.89c.02-1.76.95-3.39,2.45-4.32-.95-1.36-2.49-2.19-4.15-2.24-1.75-.18-3.44,1.04-4.33,1.04s-2.28-1.03-3.75-1c-1.94.06-3.71,1.14-4.65,2.84-2.01,3.48-.51,8.6,1.42,11.41.96,1.38,2.09,2.92,3.56,2.86,1.44-.06,1.98-.92,3.72-.92s2.23.92,3.73.89c1.55-.03,2.52-1.38,3.45-2.78.69-.98,1.23-2.07,1.58-3.22-1.84-.78-3.03-2.58-3.04-4.57Z"/><path id="_Path_2" d="M22.16,11.48c.84-1.01,1.26-2.32,1.16-3.63-1.29.14-2.48.75-3.34,1.73-.84.96-1.27,2.22-1.19,3.5,1.31.01,2.55-.57,3.37-1.59Z"/></g></g></g><g id="_Group_4"><path d="M35.62,14.7v-5.12h-1.88v-.84h4.68v.84h-1.87v5.12h-.93Z"/><path d="M42.73,13.49c-.25.85-1.07,1.4-1.95,1.3-1.13.03-2.07-.86-2.1-1.99,0-.11,0-.22.02-.33-.15-1.14.65-2.18,1.78-2.33.1-.01.2-.02.29-.02,1.25,0,2.01.86,2.01,2.27v.31h-3.18v.05c-.06.66.43,1.23,1.09,1.29.04,0,.08,0,.11,0,.43.05.86-.16,1.07-.55h.86ZM39.6,12.03h2.27c.04-.6-.4-1.12-1-1.16-.04,0-.07,0-.11,0-.64,0-1.16.5-1.17,1.14,0,0,0,.02,0,.03ZM40.24,9.45l1.04-1.42h1.04l-1.16,1.42h-.92Z"/><path d="M44.02,8.44h.89v6.26h-.89v-6.26Z"/><path d="M50.17,13.49c-.25.85-1.07,1.4-1.95,1.3-1.13.03-2.07-.86-2.1-1.99,0-.11,0-.22.02-.33-.15-1.14.65-2.18,1.78-2.33.1-.01.2-.02.29-.02,1.25,0,2.01.86,2.01,2.27v.31h-3.18v.05c-.06.66.43,1.23,1.09,1.29.04,0,.08,0,.11,0,.43.05.86-.16,1.07-.55h.86ZM47.05,12.03h2.27c.04-.6-.4-1.12-1-1.16-.04,0-.07,0-.11,0-.64,0-1.16.5-1.17,1.14,0,0,0,.02,0,.03h0ZM47.69,9.45l1.04-1.42h1.04l-1.16,1.42h-.92Z"/><path d="M54.37,11.67c-.12-.48-.57-.81-1.06-.76-.74,0-1.2.57-1.2,1.53s.46,1.56,1.2,1.56c.49.06.95-.26,1.06-.74h.86c-.12.95-.97,1.63-1.92,1.53-1.14.04-2.1-.86-2.13-2,0-.12,0-.24.02-.35-.15-1.12.64-2.16,1.76-2.31.11-.02.23-.02.35-.02.96-.09,1.81.6,1.93,1.56h-.86Z"/><path d="M56.41,8.44h.88v2.48h.07c.24-.53.79-.85,1.37-.81.82-.04,1.52.58,1.56,1.4,0,.09,0,.19-.01.28v2.91h-.89v-2.69c0-.72-.33-1.08-.96-1.08-.58-.05-1.09.38-1.13.96,0,.06,0,.12,0,.18v2.63h-.89v-6.26Z"/><path d="M61.41,13.43c0-.81.6-1.28,1.67-1.34l1.22-.07v-.39c0-.48-.31-.74-.92-.74-.5,0-.84.18-.94.5h-.86c.09-.77.82-1.27,1.84-1.27,1.13,0,1.77.56,1.77,1.51v3.08h-.86v-.63h-.07c-.29.46-.81.73-1.35.71-.75.08-1.42-.47-1.49-1.21,0-.04,0-.09,0-.14ZM64.3,13.04v-.38l-1.1.07c-.62.04-.9.25-.9.65s.35.64.83.64c.58.06,1.1-.37,1.16-.95,0-.01,0-.02,0-.04h0Z"/><path d="M66.58,10.2h.86v.69h.07c.2-.49.69-.8,1.22-.77.13,0,.27.01.4.04v.88c-.16-.03-.33-.05-.5-.05-.58-.05-1.09.38-1.15.96,0,.03,0,.07,0,.1v2.66h-.89v-4.5Z"/><path d="M69.93,15.15h.91c.08.33.45.54,1.05.54.74,0,1.18-.35,1.18-.95v-.86h-.07c-.28.49-.82.79-1.39.76-1.15,0-1.86-.89-1.86-2.24s.72-2.27,1.87-2.27c.58-.02,1.13.29,1.41.79h.07v-.72h.85v4.54c0,1.03-.81,1.68-2.08,1.68-1.12,0-1.85-.5-1.95-1.27ZM73.08,12.39c0-.9-.46-1.47-1.22-1.47s-1.19.57-1.19,1.47.43,1.47,1.19,1.47,1.22-.57,1.22-1.47h0Z"/><path d="M79.18,13.49c-.25.85-1.07,1.4-1.95,1.3-1.13.03-2.07-.86-2.1-1.99,0-.11,0-.22.02-.33-.15-1.14.65-2.18,1.78-2.33.1-.01.2-.02.29-.02,1.25,0,2.01.86,2.01,2.27v.31h-3.18v.05c-.06.66.43,1.23,1.09,1.29.04,0,.08,0,.11,0,.43.05.86-.16,1.07-.55h.86ZM76.05,12.03h2.27c.04-.6-.4-1.12-1-1.16-.04,0-.07,0-.11,0-.64,0-1.16.5-1.17,1.14,0,0,0,.02,0,.03h0Z"/><path d="M80.43,10.2h.86v.69h.07c.2-.49.69-.8,1.22-.77.13,0,.27.01.4.04v.88c-.16-.03-.33-.05-.5-.05-.58-.05-1.09.38-1.15.96,0,.03,0,.07,0,.1v2.66h-.89v-4.5Z"/><path d="M86.16,12.45c0-1.42.73-2.32,1.87-2.32.57-.03,1.11.28,1.38.79h.07v-2.47h.89v6.26h-.85v-.71h-.07c-.29.5-.83.81-1.41.79-1.15,0-1.87-.9-1.87-2.33ZM87.08,12.45c0,.96.45,1.53,1.2,1.53s1.21-.58,1.21-1.53-.47-1.53-1.21-1.53-1.2.58-1.2,1.53h0Z"/><path d="M91.57,13.43c0-.81.6-1.28,1.67-1.34l1.22-.07v-.39c0-.48-.31-.74-.92-.74-.5,0-.84.18-.94.5h-.86c.09-.77.82-1.27,1.84-1.27,1.13,0,1.77.56,1.77,1.51v3.08h-.86v-.63h-.07c-.29.46-.81.73-1.35.71-.75.08-1.42-.47-1.49-1.21,0-.04,0-.09,0-.14ZM94.46,13.04v-.38l-1.1.07c-.62.04-.9.25-.9.65s.35.64.83.64c.58.06,1.1-.37,1.16-.95,0-.01,0-.02,0-.04h0Z"/><path d="M96.74,10.2h.86v.72h.07c.23-.53.77-.85,1.34-.8.81-.06,1.51.54,1.57,1.35,0,.11,0,.22-.01.32v2.91h-.89v-2.69c0-.72-.31-1.08-.97-1.08-.57-.03-1.05.41-1.08.98,0,.05,0,.11,0,.16v2.63h-.89v-4.5Z"/><path d="M103.58,10.11c1.01,0,1.67.47,1.76,1.27h-.85c-.08-.33-.41-.54-.91-.54s-.87.24-.87.59c0,.27.23.44.72.55l.75.17c.86.2,1.26.57,1.26,1.23,0,.85-.79,1.41-1.87,1.41s-1.77-.48-1.85-1.28h.89c.16.39.56.62.98.56.55,0,.95-.25.95-.61,0-.27-.21-.44-.66-.55l-.79-.18c-.86-.2-1.25-.59-1.25-1.26,0-.8.73-1.36,1.75-1.36Z"/></g><path d="M35.19,18.08h1.86v12.42h-1.86v-12.42Z"/><path d="M39.29,22.62l1.02-4.54h1.81l-1.23,4.54h-1.59Z"/><path d="M49.14,27.14h-4.73l-1.14,3.36h-2l4.48-12.42h2.08l4.48,12.42h-2.04l-1.14-3.36ZM44.9,25.59h3.75l-1.85-5.45h-.05l-1.85,5.45Z"/><path d="M62,25.97c0,2.81-1.51,4.62-3.78,4.62-1.17.06-2.28-.55-2.85-1.58h-.04v4.48h-1.86v-12.05h1.8v1.51h.03c.59-1.02,1.7-1.64,2.88-1.6,2.3,0,3.81,1.82,3.81,4.62ZM60.09,25.97c0-1.83-.95-3.04-2.39-3.04s-2.38,1.23-2.38,3.04.96,3.05,2.38,3.05,2.39-1.2,2.39-3.05Z"/><path d="M71.96,25.97c0,2.81-1.51,4.62-3.78,4.62-1.17.06-2.28-.55-2.85-1.58h-.04v4.48h-1.86v-12.05h1.8v1.51h.03c.59-1.02,1.7-1.64,2.88-1.6,2.3,0,3.81,1.82,3.81,4.62ZM70.05,25.97c0-1.83-.95-3.04-2.39-3.04s-2.38,1.23-2.38,3.04.96,3.05,2.38,3.05,2.39-1.2,2.39-3.05Z"/><path d="M78.55,27.04c.14,1.23,1.33,2.04,2.97,2.04s2.69-.81,2.69-1.92c0-.96-.68-1.54-2.29-1.94l-1.61-.39c-2.28-.55-3.34-1.62-3.34-3.35,0-2.14,1.87-3.61,4.52-3.61s4.42,1.47,4.48,3.61h-1.88c-.11-1.24-1.14-1.99-2.63-1.99s-2.52.76-2.52,1.86c0,.88.65,1.39,2.25,1.79l1.37.34c2.55.6,3.61,1.63,3.61,3.44,0,2.32-1.85,3.78-4.79,3.78-2.75,0-4.61-1.42-4.73-3.67h1.9Z"/><path d="M90.19,19.3v2.14h1.72v1.47h-1.72v4.99c0,.78.34,1.14,1.1,1.14.2,0,.41-.02.61-.04v1.46c-.34.06-.69.09-1.03.09-1.83,0-2.55-.69-2.55-2.44v-5.19h-1.32v-1.47h1.32v-2.14h1.87Z"/><path d="M92.9,25.97c0-2.85,1.68-4.64,4.29-4.64s4.29,1.79,4.29,4.64-1.66,4.64-4.29,4.64-4.29-1.78-4.29-4.64ZM99.6,25.97c0-1.95-.9-3.11-2.4-3.11s-2.4,1.16-2.4,3.11.89,3.11,2.4,3.11,2.4-1.14,2.4-3.11Z"/><path d="M103.02,21.44h1.77v1.54h.04c.25-.99,1.16-1.67,2.18-1.64.21,0,.43.02.64.07v1.74c-.27-.08-.55-.12-.83-.11-1.03-.04-1.91.76-1.95,1.8,0,.1,0,.19.01.29v5.37h-1.86v-9.05Z"/><path d="M116.22,27.84c-.25,1.64-1.85,2.77-3.9,2.77-2.63,0-4.27-1.76-4.27-4.6s1.64-4.68,4.19-4.68,4.08,1.72,4.08,4.47v.64h-6.39v.11c-.11,1.3.84,2.44,2.14,2.56.1,0,.2.01.29,0,.9.08,1.75-.43,2.09-1.27h1.76ZM109.94,25.13h4.53c.07-1.2-.85-2.23-2.05-2.29-.06,0-.11,0-.17,0-1.27,0-2.3,1.01-2.31,2.28,0,0,0,.01,0,.02Z"/></svg>