<?xml version="1.0" encoding="UTF-8" standalone="no"?>
<svg
   id="livetype"
   version="1.1"
   viewBox="0 0 119.29618 40"
   sodipodi:docname="appstore-ru.svg"
   width="119.29619"
   height="40"
   inkscape:version="1.4 (86a8ad7, 2024-10-11)"
   xmlns:inkscape="http://www.inkscape.org/namespaces/inkscape"
   xmlns:sodipodi="http://sodipodi.sourceforge.net/DTD/sodipodi-0.dtd"
   xmlns="http://www.w3.org/2000/svg"
   xmlns:svg="http://www.w3.org/2000/svg">
  <sodipodi:namedview
     id="namedview20"
     pagecolor="#ffffff"
     bordercolor="#000000"
     borderopacity="0.25"
     inkscape:showpageshadow="2"
     inkscape:pageopacity="0.0"
     inkscape:pagecheckerboard="0"
     inkscape:deskcolor="#d1d1d1"
     inkscape:zoom="11.436653"
     inkscape:cx="20.941441"
     inkscape:cy="12.984568"
     inkscape:window-width="3440"
     inkscape:window-height="1351"
     inkscape:window-x="-9"
     inkscape:window-y="-9"
     inkscape:window-maximized="1"
     inkscape:current-layer="livetype" />
  <!-- Generator: Adobe Illustrator 30.5.1, SVG Export Plug-In . SVG Version: 2.1.4 Build 3)  -->
  <defs
     id="defs1">
    <style
       id="style1">
      .st0 {
        fill: #fff;
      }
    </style>
  </defs>
  <g
     id="g11"
     transform="scale(1.1730205)">
    <g
       id="g2">
      <path
         d="M 93.7,0 H 8.1 C 7.8,0 7.5,0 7.2,0 6.9,0 6.7,0 6.4,0 5.8,0 5.3,0 4.7,0.2 4.1,0.2 3.6,0.5 3.1,0.7 2.6,1 2.1,1.3 1.7,1.7 1.3,2.1 1,2.6 0.7,3.1 0.4,3.6 0.3,4.2 0.2,4.7 0.2,5.3 0.1,5.8 0,6.4 0,6.7 0,6.9 0,7.2 v 19.7 c 0,0.3 0,0.5 0,0.8 0,0.6 0,1.1 0.2,1.7 0,0.6 0.3,1.1 0.5,1.6 0.3,0.5 0.6,1 1,1.4 0.4,0.4 0.9,0.7 1.4,1 0.5,0.3 1.1,0.4 1.6,0.5 0.6,0 1.1,0.1 1.7,0.2 0.3,0 0.5,0 0.8,0 0.3,0 0.6,0 0.9,0 h 85.5 c 0.3,0 0.6,0 0.9,0 0.3,0 0.5,0 0.8,0 0.6,0 1.1,0 1.7,-0.2 0.6,0 1.1,-0.3 1.6,-0.5 0.5,-0.3 1,-0.6 1.4,-1 0.4,-0.4 0.7,-0.9 1,-1.4 0.3,-0.5 0.4,-1.1 0.5,-1.6 0,-0.6 0.1,-1.1 0.2,-1.7 0,-0.3 0,-0.5 0,-0.8 0,-0.3 0,-0.6 0,-0.9 V 8.1 c 0,-0.3 0,-0.6 0,-0.9 0,-0.3 0,-0.5 0,-0.8 0,-0.6 0,-1.1 -0.2,-1.7 0,-0.6 -0.3,-1.1 -0.5,-1.6 C 100.5,2.1 99.6,1.2 98.6,0.7 98.1,0.4 97.5,0.3 97,0.2 96.4,0.2 95.9,0.1 95.3,0 95,0 94.8,0 94.5,0 94.2,0 93.9,0 93.6,0 v 0 z"
         id="path1" />
      <path
         class="st0"
         d="m 7.2,33.3 c -0.3,0 -0.5,0 -0.8,0 -0.5,0 -1.1,0 -1.6,-0.1 C 4.3,33.2 3.8,33 3.4,32.7 3,32.5 2.6,32.2 2.2,31.8 1.8,31.5 1.6,31.1 1.3,30.6 1.1,30.2 0.9,29.7 0.8,29.2 c 0,-0.5 -0.1,-1.1 -0.1,-1.6 0,-0.2 0,-0.8 0,-0.8 V 7.2 c 0,0 0,-0.6 0,-0.8 0,-0.5 0,-1.1 0.1,-1.6 C 0.8,4.3 1,3.8 1.3,3.4 1.5,3 1.8,2.6 2.2,2.2 2.5,1.8 3,1.6 3.4,1.3 3.8,1.1 4.3,0.9 4.8,0.8 5.3,0.8 5.9,0.7 6.4,0.7 h 0.8 c 0,0 87.4,0 87.4,0 h 0.8 c 0.5,0 1.1,0 1.6,0.1 0.5,0 1,0.2 1.4,0.5 0.9,0.5 1.6,1.2 2.1,2.1 0.2,0.4 0.4,0.9 0.5,1.4 0,0.5 0.1,1.1 0.1,1.6 0,0.2 0,0.5 0,0.8 0,0.3 0,0.6 0,0.9 v 17.8 c 0,0.3 0,0.6 0,0.9 0,0.3 0,0.5 0,0.8 0,0.5 0,1.1 -0.1,1.6 0,0.5 -0.2,1 -0.5,1.4 -0.2,0.4 -0.5,0.8 -0.9,1.2 -0.3,0.4 -0.7,0.6 -1.2,0.9 -0.4,0.2 -0.9,0.4 -1.4,0.5 -0.5,0 -1.1,0.1 -1.6,0.1 -0.2,0 -0.5,0 -0.8,0 h -0.9 c 0,0 -86.5,0 -86.5,0 z"
         id="path2" />
    </g>
    <g
       id="_Group_">
      <g
         id="_Group_2">
        <g
           id="_Group_3">
          <path
             id="_Path_"
             d="m 21.3,16.9 c 0,-1.5 0.8,-2.9 2.1,-3.7 -0.8,-1.2 -2.1,-1.9 -3.5,-1.9 -1.5,-0.2 -2.9,0.9 -3.7,0.9 -0.8,0 -1.9,-0.9 -3.2,-0.8 -1.7,0 -3.2,1 -4,2.4 -1.7,3 -0.4,7.3 1.2,9.7 0.8,1.2 1.8,2.5 3,2.4 1.2,0 1.7,-0.8 3.2,-0.8 1.5,0 1.9,0.8 3.2,0.8 1.3,0 2.1,-1.2 2.9,-2.4 0.6,-0.8 1,-1.8 1.3,-2.7 -1.6,-0.7 -2.6,-2.2 -2.6,-3.9 z" />
          <path
             id="_Path_2"
             d="m 18.8,9.8 c 0.7,-0.9 1.1,-2 1,-3.1 -1.1,0.1 -2.1,0.6 -2.8,1.5 -0.7,0.8 -1.1,1.9 -1,3 1.1,0 2.2,-0.5 2.9,-1.4 z" />
        </g>
      </g>
      <g
         id="g10">
        <path
           d="M 36,23.1 H 32 L 31,26 h -1.7 l 3.8,-10.6 h 1.8 L 38.7,26 H 37 Z m -3.6,-1.3 h 3.2 L 34,17.2 v 0 z"
           id="path3" />
        <path
           d="m 46.9,22.1 c 0,2.4 -1.3,3.9 -3.2,3.9 -1,0 -1.9,-0.5 -2.4,-1.3 v 0 3.8 H 39.7 V 18.3 h 1.5 v 1.3 0 c 0.5,-0.9 1.4,-1.4 2.5,-1.4 2,0 3.2,1.5 3.2,3.9 z m -1.6,0 c 0,-1.6 -0.8,-2.6 -2,-2.6 -1.2,0 -2,1 -2,2.6 0,1.6 0.8,2.6 2,2.6 1.2,0 2,-1 2,-2.6 z"
           id="path4" />
        <path
           d="m 55.4,22.1 c 0,2.4 -1.3,3.9 -3.2,3.9 -1,0 -1.9,-0.5 -2.4,-1.3 v 0 3.8 H 48.2 V 18.3 h 1.5 v 1.3 0 c 0.5,-0.9 1.4,-1.4 2.5,-1.4 2,0 3.2,1.5 3.2,3.9 z m -1.6,0 c 0,-1.6 -0.8,-2.6 -2,-2.6 -1.2,0 -2,1 -2,2.6 0,1.6 0.8,2.6 2,2.6 1.2,0 2,-1 2,-2.6 z"
           id="path5" />
        <path
           d="m 61,23 c 0.1,1 1.1,1.7 2.5,1.7 1.4,0 2.3,-0.7 2.3,-1.6 0,-0.9 -0.6,-1.3 -1.9,-1.6 l -1.4,-0.3 c -1.9,-0.5 -2.8,-1.4 -2.8,-2.8 0,-1.4 1.6,-3.1 3.8,-3.1 2.2,0 3.8,1.3 3.8,3.1 h -1.6 c 0,-1.1 -1,-1.7 -2.2,-1.7 -1.2,0 -2.1,0.6 -2.1,1.6 0,1 0.6,1.2 1.9,1.5 l 1.2,0.3 c 2.2,0.5 3.1,1.4 3.1,2.9 0,1.5 -1.6,3.2 -4.1,3.2 -2.5,0 -3.9,-1.2 -4,-3.1 h 1.6 z"
           id="path6" />
        <path
           d="m 70.9,16.4 v 1.8 h 1.5 v 1.3 h -1.5 v 4.2 c 0,0.7 0.3,1 0.9,1 0.2,0 0.3,0 0.5,0 v 1.2 c -0.3,0 -0.6,0 -0.9,0 -1.6,0 -2.2,-0.6 -2.2,-2.1 v -4.4 h -1.1 v -1.3 h 1.1 v -1.8 h 1.6 z"
           id="path7" />
        <path
           d="m 73.2,22.1 c 0,-2.4 1.4,-3.9 3.7,-3.9 2.3,0 3.7,1.5 3.7,3.9 0,2.4 -1.4,3.9 -3.7,3.9 -2.3,0 -3.7,-1.5 -3.7,-3.9 z m 5.7,0 c 0,-1.7 -0.8,-2.6 -2,-2.6 -1.2,0 -2,1 -2,2.6 0,1.6 0.8,2.6 2,2.6 1.2,0 2,-1 2,-2.6 z"
           id="path8" />
        <path
           d="m 81.8,18.2 h 1.5 v 1.3 0 c 0.2,-0.8 1,-1.4 1.9,-1.4 0.2,0 0.4,0 0.5,0 v 1.5 c -0.2,0 -0.5,-0.1 -0.7,0 -0.9,0 -1.6,0.6 -1.7,1.5 0,0 0,0.2 0,0.2 v 4.6 h -1.6 v -7.7 z"
           id="path9" />
        <path
           d="m 93,23.7 c -0.2,1.4 -1.6,2.4 -3.3,2.4 -1.7,0 -3.6,-1.5 -3.6,-3.9 0,-2.4 1.4,-4 3.6,-4 2.2,0 3.5,1.5 3.5,3.8 v 0.5 h -5.4 c 0,1.2 0.7,2.2 1.8,2.3 0,0 0.2,0 0.3,0 0.8,0 1.5,-0.4 1.8,-1.1 h 1.5 z m -5.3,-2.3 h 3.8 c 0,-1 -0.7,-1.9 -1.7,-2 0,0 0,0 -0.1,0 -1.1,0 -2,0.9 -2,1.9 0,0 0,0 0,0 z"
           id="path10" />
      </g>
    </g>
  </g>
  <g
     id="_Group_4"
     transform="scale(1.1730205)">
    <g
       id="g20">
      <path
         d="m 31.2,9.6 h 0.7 c 0.5,0 0.9,-0.3 1,-0.7 0,0 0,0 0,0 0,-0.5 -0.4,-0.8 -0.9,-0.8 -0.5,0 -1,0.3 -1,0.8 0,0 0,0 0,0 h -0.7 c 0,-0.9 0.8,-1.5 1.7,-1.5 0,0 0,0 0.1,0 1,0 1.7,0.6 1.7,1.4 0,0.6 -0.4,1 -0.9,1.2 v 0 c 0.6,0 1.2,0.6 1.1,1.3 0,0.9 -0.9,1.6 -1.9,1.5 0,0 0,0 0,0 -0.9,0.1 -1.8,-0.5 -1.9,-1.4 0,0 0,0 0,0 H 31 c 0,0.5 0.5,0.8 1.1,0.8 0.6,0 1.1,-0.4 1.1,-0.8 0,-0.4 -0.4,-0.8 -1.1,-0.8 H 31.4 V 9.9 Z"
         id="path11" />
      <path
         d="m 34.7,11.4 c 0,-0.7 0.5,-1.1 1.4,-1.1 h 1 V 9.9 c 0,-0.4 -0.3,-0.6 -0.8,-0.6 -0.5,0 -0.7,0.2 -0.8,0.4 h -0.7 c 0,-0.7 0.7,-1.1 1.6,-1.1 0.9,0 1.5,0.5 1.5,1.3 v 2.6 H 37.2 V 12 12 c -0.2,0.4 -0.7,0.6 -1.2,0.6 -0.6,0 -1.2,-0.4 -1.3,-1 0,0 0,0 0,-0.1 z m 2.5,-0.3 v -0.3 h -0.9 c -0.5,0 -0.8,0.3 -0.8,0.6 0,0.3 0.3,0.5 0.7,0.5 0.5,0 0.9,-0.3 1,-0.8 z"
         id="path12" />
      <path
         d="m 39.9,9.3 v 3.2 H 39.1 V 8.7 h 2.5 v 0.6 h -1.8 z"
         id="path13" />
      <path
         d="m 46.3,10.6 c 0,1.2 -0.6,2 -1.6,2 -0.5,0 -0.9,-0.2 -1.2,-0.6 v 0 1.9 H 42.7 V 8.8 h 0.7 v 0.6 0 c 0.2,-0.4 0.7,-0.7 1.2,-0.7 1,0 1.6,0.8 1.6,2 z m -0.8,0 c 0,-0.8 -0.4,-1.3 -1,-1.3 -0.6,0 -1,0.5 -1,1.3 0,0.8 0.4,1.3 1,1.3 0.6,0 1,-0.5 1,-1.3 z"
         id="path14" />
      <path
         d="m 47.3,13.9 v -0.7 c 0,0 0.2,0 0.2,0 0.3,0 0.6,-0.2 0.7,-0.5 v -0.2 c 0,0 -1.3,-3.8 -1.3,-3.8 h 0.8 l 1,3 v 0 l 1,-3 h 0.8 l -1.4,4 c -0.3,0.9 -0.7,1.2 -1.5,1.2 0,0 -0.2,0 -0.3,0 z"
         id="path15" />
      <path
         d="m 51.1,11.4 h 0.8 c 0,0.3 0.4,0.5 0.8,0.5 0.4,0 0.8,-0.2 0.8,-0.6 0,-0.4 -0.3,-0.5 -0.8,-0.5 h -0.6 v -0.6 h 0.6 c 0.5,0 0.7,-0.2 0.7,-0.5 0,-0.3 -0.2,-0.5 -0.7,-0.5 -0.5,0 -0.7,0.2 -0.8,0.5 H 51.2 C 51.3,9 52,8.5 52.7,8.6 c 0.9,0 1.4,0.4 1.4,1.1 0,0.4 -0.2,0.7 -0.6,0.8 v 0 c 0.4,0.1 0.8,0.5 0.7,0.9 0,0.7 -0.6,1.2 -1.6,1.2 -0.8,0 -1.5,-0.4 -1.6,-1.2 z"
         id="path16" />
      <path
         d="M 55.3,12.5 V 8.7 H 56 v 2.6 0 l 1.8,-2.6 h 0.7 v 3.8 h -0.7 v -2.6 0 L 56,12.5 Z"
         id="path17" />
      <path
         d="m 62.8,9.3 h -1.2 v 3.2 H 60.8 V 9.3 H 59.6 V 8.7 h 3.2 z"
         id="path18" />
      <path
         d="m 66.9,11.5 c -0.2,0.7 -0.9,1.2 -1.7,1.1 -1,0 -1.8,-0.7 -1.8,-1.7 0,0 0,-0.2 0,-0.3 -0.1,-1 0.5,-1.9 1.5,-2 0,0 0.2,0 0.2,0 1.1,0 1.7,0.7 1.7,1.9 v 0.3 h -2.7 c 0,0.6 0.4,1.1 0.9,1.1 0,0 0,0 0,0 0.4,0 0.7,-0.1 0.9,-0.5 h 0.7 z m -2.7,-1.3 h 1.9 c 0,-0.5 -0.3,-1 -0.9,-1 0,0 0,0 0,0 -0.5,0 -1,0.4 -1,1 z"
         id="path19" />
      <path
         d="m 70.1,8.7 h 1.7 c 0.7,0 1.2,0.4 1.2,1 0,0.4 -0.3,0.7 -0.6,0.8 v 0 c 0.5,0 0.8,0.5 0.8,0.9 0,0.7 -0.5,1.1 -1.3,1.1 H 70.2 V 8.7 Z m 0.7,0.5 v 1 h 0.7 C 72,10.2 72.2,10 72.2,9.7 72.2,9.4 72,9.2 71.6,9.2 Z m 0,1.6 v 1.1 h 0.9 c 0.4,0 0.7,-0.2 0.7,-0.6 0,-0.4 -0.3,-0.6 -0.8,-0.6 h -0.8 z"
         id="path20" />
    </g>
  </g>
</svg>
