<?xml version="1.0" encoding="UTF-8"?>
<svg id="Ebene_1" xmlns="http://www.w3.org/2000/svg" version="1.1" width="199.3" height="66.6" viewBox="0 0 199.3 66.6">
  <defs>
    <style>
      .st0 {
        fill: #fff;
      }
    </style>
  </defs>
  <path d="M183.4,0H15.9C15.3,0,14.7,0,14.1,0c-.5,0-1,0-1.5,0-1.1,0-2.2.1-3.3.3-1.1.2-2.2.5-3.2,1-1,.5-1.9,1.2-2.7,2-.8.8-1.5,1.7-2,2.7-.5,1-.9,2.1-1,3.2-.2,1.1-.3,2.2-.3,3.3,0,.5,0,1,0,1.5v38.5c0,.5,0,1,0,1.5,0,1.1.1,2.2.3,3.3.2,1.1.5,2.2,1,3.2.5,1,1.2,1.9,2,2.7.8.8,1.7,1.5,2.7,2,1,.5,2.1.9,3.2,1.1,1.1.2,2.2.3,3.3.3.5,0,1,0,1.5,0,.6,0,1.2,0,1.8,0h167.5c.6,0,1.2,0,1.8,0,.5,0,1,0,1.5,0,1.1,0,2.2-.1,3.3-.3,1.1-.2,2.2-.5,3.2-1.1,1-.5,1.9-1.2,2.7-2,.8-.8,1.5-1.7,2-2.7.5-1,.9-2.1,1-3.2.2-1.1.3-2.2.3-3.3,0-.5,0-1,0-1.5,0-.6,0-1.2,0-1.8V15.9c0-.6,0-1.2,0-1.8,0-.5,0-1,0-1.5,0-1.1-.1-2.2-.3-3.3-.2-1.1-.5-2.2-1-3.2-1-2-2.7-3.6-4.7-4.7-1-.5-2.1-.9-3.2-1-1.1-.2-2.2-.3-3.3-.3-.5,0-1,0-1.5,0-.6,0-1.2,0-1.8,0h0Z"/>
  <path class="st0" d="M14.1,65.2c-.5,0-1,0-1.5,0-1,0-2.1-.1-3.1-.3-1-.2-1.9-.5-2.8-.9-.9-.4-1.6-1-2.3-1.7-.7-.7-1.3-1.5-1.7-2.3-.4-.9-.7-1.8-.9-2.8-.2-1-.3-2.1-.3-3.1,0-.4,0-1.5,0-1.5V14.1s0-1.2,0-1.5c0-1,.1-2.1.3-3.1.2-1,.5-1.9.9-2.8.4-.9,1-1.6,1.7-2.3.7-.7,1.5-1.3,2.3-1.7.9-.4,1.8-.7,2.8-.9,1-.2,2.1-.3,3.1-.3h1.5s171.1,0,171.1,0h1.5c1,0,2.1.1,3.1.3,1,.2,1.9.5,2.8.9,1.7.9,3.1,2.3,4,4,.4.9.7,1.8.9,2.7.2,1,.3,2.1.3,3.1,0,.5,0,1,0,1.5,0,.6,0,1.2,0,1.8v34.9c0,.6,0,1.2,0,1.8,0,.5,0,1,0,1.5,0,1-.1,2.1-.3,3.1-.2,1-.5,1.9-.9,2.8-.4.9-1,1.6-1.7,2.3-.7.7-1.5,1.3-2.3,1.7-.9.4-1.8.8-2.8.9-1,.2-2.1.3-3.1.3-.5,0-1,0-1.5,0h-1.8s-169.3,0-169.3,0Z"/>
  <path d="M41.6,33.1c0-2.9,1.6-5.7,4.1-7.2-1.6-2.3-4.1-3.7-6.9-3.7-2.9-.3-5.7,1.7-7.2,1.7s-3.8-1.7-6.2-1.7c-3.2.1-6.2,1.9-7.7,4.7-3.3,5.8-.9,14.3,2.4,19,1.6,2.3,3.5,4.9,5.9,4.8,2.4,0,3.3-1.5,6.2-1.5s3.7,1.5,6.2,1.5c2.6,0,4.2-2.3,5.8-4.6,1.2-1.6,2-3.4,2.6-5.4-3.1-1.3-5.1-4.3-5.1-7.6ZM36.9,19.1c1.4-1.7,2.1-3.9,1.9-6-2.1.2-4.1,1.3-5.6,2.9-1.4,1.6-2.1,3.7-2,5.8,2.2,0,4.2-1,5.6-2.7h0ZM70.4,45.2h-7.9l-1.9,5.6h-3.3l7.5-20.7h3.5l7.5,20.7h-3.4l-1.9-5.6ZM63.4,42.6h6.2l-3.1-9.1h0l-3.1,9.1ZM91.9,43.2c0,4.7-2.5,7.7-6.3,7.7-2,.1-3.8-.9-4.7-2.6h0v7.5h-3.1v-20.1h3v2.5h0c1-1.7,2.8-2.7,4.8-2.7,3.8,0,6.3,3,6.3,7.7h0ZM88.7,43.2c0-3.1-1.6-5.1-4-5.1s-4,2-4,5.1,1.6,5.1,4,5.1,4-2,4-5.1h0ZM108.5,43.2c0,4.7-2.5,7.7-6.3,7.7-2,.1-3.8-.9-4.7-2.6h0v7.5h-3.1v-20.1h3v2.5h0c1-1.7,2.8-2.7,4.8-2.7,3.8,0,6.3,3,6.3,7.7h0ZM105.3,43.2c0-3.1-1.6-5.1-4-5.1s-4,2-4,5.1,1.6,5.1,4,5.1,4-2,4-5.1h0ZM119.4,45c.2,2.1,2.2,3.4,4.9,3.4s4.5-1.3,4.5-3.2-1.1-2.6-3.8-3.2l-2.7-.6c-3.8-.9-5.6-2.7-5.6-5.6s3.1-6,7.5-6,7.4,2.5,7.5,6h-3.1c-.2-2.1-1.9-3.3-4.4-3.3s-4.2,1.3-4.2,3.1,1.1,2.3,3.8,3l2.3.6c4.2,1,6,2.7,6,5.7s-3.1,6.3-8,6.3-7.7-2.4-7.9-6.1h3.2ZM138.8,32.1v3.6h2.9v2.5h-2.9v8.3c0,1.3.6,1.9,1.8,1.9.3,0,.7,0,1,0v2.4c-.6.1-1.1.2-1.7.1-3.1,0-4.2-1.1-4.2-4.1v-8.6h-2.2v-2.5h2.2v-3.6h3.1ZM143.3,43.2c0-4.7,2.8-7.7,7.2-7.7s7.2,3,7.2,7.7-2.8,7.7-7.2,7.7-7.2-3-7.2-7.7ZM154.5,43.2c0-3.3-1.5-5.2-4-5.2s-4,1.9-4,5.2,1.5,5.2,4,5.2,4-1.9,4-5.2ZM160.2,35.7h3v2.6h0c.4-1.7,1.9-2.8,3.6-2.7.4,0,.7,0,1.1.1v2.9c-.5-.1-.9-.2-1.4-.2-1.7,0-3.2,1.3-3.2,3,0,.2,0,.3,0,.5v8.9h-3.1v-15.1ZM182.2,46.4c-.4,2.7-3.1,4.6-6.5,4.6s-7.1-2.9-7.1-7.7,2.7-7.8,7-7.8,6.8,2.9,6.8,7.4v1.1h-10.6v.2c-.2,2.2,1.4,4.1,3.6,4.3.2,0,.3,0,.5,0,1.5.1,2.9-.7,3.5-2.1h2.9ZM171.7,41.9h7.5c.1-2-1.4-3.7-3.4-3.8,0,0-.2,0-.3,0-2.1,0-3.8,1.7-3.8,3.8,0,0,0,0,0,0h0ZM63,14.5c2.4-.2,4.5,1.6,4.7,4.1,0,.3,0,.6,0,.9,0,3.2-1.7,5-4.7,5h-3.6v-9.9h3.6ZM60.9,23.1h1.9c1.7.1,3.2-1.2,3.3-2.9,0-.2,0-.4,0-.6.2-1.7-1-3.3-2.7-3.5-.2,0-.4,0-.6,0h-1.9v7.1ZM69.4,20.7c-.2-2,1.2-3.7,3.2-3.9s3.7,1.2,3.9,3.2c0,.2,0,.5,0,.7.2,2-1.2,3.7-3.2,3.9-2,.2-3.7-1.2-3.9-3.2,0-.2,0-.5,0-.7ZM75,20.7c0-1.6-.7-2.6-2-2.6s-2,1-2,2.6.7,2.6,2,2.6,2-.9,2-2.6ZM85.9,24.5h-1.5l-1.5-5.5h-.1l-1.5,5.5h-1.5l-2.1-7.5h1.5l1.3,5.7h.1l1.5-5.7h1.4l1.5,5.7h.1l1.3-5.7h1.5l-2.1,7.5ZM89.7,17h1.4v1.2h.1c.4-.9,1.3-1.4,2.2-1.3,1.3-.1,2.5.9,2.6,2.2,0,.2,0,.4,0,.5v4.9h-1.5v-4.5c0-1.2-.5-1.8-1.6-1.8-.9,0-1.8.7-1.8,1.6,0,0,0,.2,0,.3v4.4h-1.5v-7.5ZM98.4,14.1h1.5v10.4h-1.5v-10.4ZM101.9,20.7c-.2-2,1.2-3.7,3.2-3.9,2-.2,3.7,1.2,3.9,3.2,0,.2,0,.5,0,.7.2,2-1.2,3.7-3.2,3.9-2,.2-3.7-1.2-3.9-3.2,0-.2,0-.5,0-.7ZM107.5,20.7c0-1.6-.7-2.6-2-2.6s-2,1-2,2.6.7,2.6,2,2.6,2-.9,2-2.6ZM110.6,22.4c0-1.3,1-2.1,2.8-2.2h2v-.8c0-.8-.5-1.2-1.5-1.2s-1.4.3-1.6.8h-1.4c.2-1.3,1.4-2.1,3.1-2.1s2.9.9,2.9,2.5v5.1h-1.4v-1.1h-.1c-.5.8-1.3,1.2-2.3,1.2-1.2.1-2.4-.8-2.5-2,0,0,0-.2,0-.2h0ZM115.4,21.7v-.6h-1.8c-1,.2-1.5.5-1.5,1.2s.6,1.1,1.4,1.1c1,0,1.8-.6,1.9-1.6,0,0,0,0,0,0ZM118.8,20.7c0-2.4,1.2-3.9,3.1-3.9,1,0,1.9.5,2.3,1.3h.1v-4.1h1.5v10.4h-1.4v-1.2h-.1c-.5.8-1.4,1.3-2.4,1.3-1.9,0-3.1-1.5-3.1-3.9h0ZM120.3,20.7c0,1.6.7,2.5,2,2.5s2-1,2-2.5-.8-2.5-2-2.5-2,1-2,2.5ZM131.9,20.7c-.2-2,1.2-3.7,3.2-3.9s3.7,1.2,3.9,3.2c0,.2,0,.5,0,.7.2,2-1.2,3.7-3.2,3.9s-3.7-1.2-3.9-3.2c0-.2,0-.5,0-.7ZM137.5,20.7c0-1.6-.7-2.6-2-2.6s-2,1-2,2.6.7,2.6,2,2.6,2-.9,2-2.6ZM141,17h1.4v1.2h.1c.4-.9,1.3-1.4,2.2-1.3,1.3-.1,2.5.9,2.6,2.2,0,.2,0,.4,0,.5v4.9h-1.5v-4.5c0-1.2-.5-1.8-1.6-1.8-.9,0-1.8.7-1.8,1.6,0,0,0,.2,0,.3v4.4h-1.5v-7.5ZM155.7,15.1v1.9h1.6v1.2h-1.6v3.9c0,.8.3,1.1,1.1,1.1.2,0,.4,0,.6,0v1.2c-.3,0-.5,0-.8,0-1.6,0-2.3-.6-2.3-2v-4.2h-1.2v-1.2h1.2v-1.9h1.5ZM159.4,14.1h1.5v4.1h.1c.4-.9,1.3-1.4,2.3-1.3,1.4,0,2.5,1,2.6,2.3,0,.2,0,.3,0,.5v4.8h-1.5v-4.5c0-1.2-.6-1.8-1.6-1.8-1,0-1.8.6-1.9,1.6,0,0,0,.2,0,.3v4.4h-1.5v-10.4ZM174.5,22.5c-.4,1.4-1.8,2.3-3.2,2.2-1.9,0-3.4-1.4-3.5-3.3,0-.2,0-.4,0-.6-.3-1.9,1.1-3.6,3-3.9.2,0,.3,0,.5,0,2.1,0,3.3,1.4,3.3,3.8v.5h-5.3c0,1.2.7,2.1,1.8,2.2,0,0,.1,0,.2,0,.7,0,1.4-.3,1.8-.9h1.4ZM169.3,20h3.8c0-1-.7-1.9-1.7-1.9,0,0-.1,0-.2,0-1.1,0-1.9.8-1.9,1.9,0,0,0,0,0,0Z"/>
</svg>