<?xml version="1.0" encoding="UTF-8" standalone="no"?>
<svg
   id="artwork"
   version="1.1"
   viewBox="0 0 134.99647 39.999998"
   sodipodi:docname="playstore-en.svg"
   inkscape:version="1.4 (86a8ad7, 2024-10-11)"
   width="134.99648"
   height="40"
   xmlns:inkscape="http://www.inkscape.org/namespaces/inkscape"
   xmlns:sodipodi="http://sodipodi.sourceforge.net/DTD/sodipodi-0.dtd"
   xmlns="http://www.w3.org/2000/svg"
   xmlns:svg="http://www.w3.org/2000/svg">
  <sodipodi:namedview
     id="namedview13"
     pagecolor="#ffffff"
     bordercolor="#000000"
     borderopacity="0.25"
     inkscape:showpageshadow="2"
     inkscape:pageopacity="0.0"
     inkscape:pagecheckerboard="0"
     inkscape:deskcolor="#d1d1d1"
     inkscape:zoom="4.8721597"
     inkscape:cx="145.41806"
     inkscape:cy="40.946934"
     inkscape:window-width="3440"
     inkscape:window-height="1351"
     inkscape:window-x="-9"
     inkscape:window-y="-9"
     inkscape:window-maximized="1"
     inkscape:current-layer="artwork" />
  <!-- Generator: Adobe Illustrator 29.8.3, SVG Export Plug-In . SVG Version: 2.1.1 Build 3)  -->
  <defs
     id="defs1">
    <style
       id="style1">
      .st0 {
        fill: #4285f4;
      }

      .st1 {
        fill: #a6a6a6;
      }

      .st2 {
        stroke: #fff;
        stroke-miterlimit: 10;
        stroke-width: .2px;
      }

      .st2, .st3 {
        fill: #fff;
      }

      .st4 {
        fill: #34a853;
      }

      .st5 {
        fill: #fbbc04;
      }

      .st6 {
        fill: #ea4335;
      }
    </style>
  </defs>
  <rect
     x="5.9604643e-10"
     width="134.99083"
     height="40"
     rx="5.0007052"
     ry="5.0007052"
     id="rect1"
     y="0"
     style="stroke-width:0.564414;fill:#ffffff" />
  <path
     class="st1"
     d="m 129.99576,0.80146744 c 2.3141,0 4.19924,1.88514176 4.19924,4.19923786 V 34.999293 c 0,2.314096 -1.88514,4.199238 -4.19924,4.199238 H 5.0007053 c -2.3140961,0 -4.19923786,-1.885142 -4.19923786,-4.199238 V 5.0007053 c 0,-2.3140961 1.88514176,-4.19923786 4.19923786,-4.19923786 H 129.99576 M 129.99576,0 H 5.0007053 C 2.2520106,0 0,2.2520106 0,5.0007053 V 34.999293 c 0,2.748695 2.2520106,5.000705 5.0007053,5.000705 H 129.99576 c 2.7487,0 5.00071,-2.25201 5.00071,-5.000705 V 5.0007053 C 134.99647,2.2520106 132.74446,0 129.99576,0 Z"
     id="path1"
     style="stroke-width:0.564414;fill:#000000" />
  <g
     id="g8"
     transform="matrix(0.56441369,0,0,0.56441369,0.06208551,0)"
     style="fill:#000000">
    <path
       class="st2"
       d="m 83.9,18.15 c 0,1.48 -0.44,2.67 -1.32,3.55 -1,1.05 -2.3,1.57 -3.9,1.57 -1.6,0 -2.84,-0.53 -3.91,-1.59 -1.07,-1.06 -1.61,-2.38 -1.61,-3.96 0,-1.58 0.54,-2.89 1.61,-3.96 1.07,-1.06 2.38,-1.6 3.91,-1.6 0.76,0 1.49,0.15 2.18,0.44 0.69,0.3 1.25,0.69 1.66,1.19 l -0.93,0.94 c -0.7,-0.84 -1.67,-1.26 -2.91,-1.26 -1.12,0 -2.09,0.39 -2.9,1.18 -0.81,0.79 -1.22,1.81 -1.22,3.06 0,1.25 0.41,2.28 1.22,3.06 0.82,0.79 1.78,1.18 2.9,1.18 1.19,0 2.18,-0.4 2.97,-1.19 0.51,-0.52 0.81,-1.23 0.89,-2.15 h -3.86 v -1.28 h 5.15 c 0.05,0.28 0.07,0.54 0.07,0.8 z"
       id="path2"
       style="fill:#000000" />
    <path
       class="st2"
       d="m 92.07,13.71 h -4.84 v 3.37 h 4.37 v 1.28 h -4.37 v 3.37 h 4.84 v 1.31 H 85.86 V 12.41 h 6.21 v 1.31 0 z"
       id="path3"
       style="fill:#000000" />
    <path
       class="st2"
       d="M 97.83,23.03 H 96.46 V 13.71 H 93.49 V 12.4 h 7.3 v 1.31 h -2.97 c 0,0 0,9.32 0,9.32 z"
       id="path4"
       style="fill:#000000" />
    <path
       class="st2"
       d="M 106.08,23.03 V 12.4 h 1.36 v 10.63 z"
       id="path5"
       style="fill:#000000" />
    <path
       class="st2"
       d="m 113.51,23.03 h -1.37 v -9.32 h -2.97 V 12.4 h 7.3 v 1.31 h -2.97 c 0,0 0,9.32 0,9.32 z"
       id="path6"
       style="fill:#000000" />
    <path
       class="st2"
       d="m 130.3,21.66 c -1.05,1.08 -2.34,1.61 -3.9,1.61 -1.56,0 -2.85,-0.54 -3.9,-1.61 -1.05,-1.07 -1.57,-2.39 -1.57,-3.94 0,-1.55 0.52,-2.87 1.57,-3.94 1.04,-1.08 2.34,-1.61 3.9,-1.61 1.56,0 2.84,0.54 3.89,1.62 1.05,1.08 1.57,2.39 1.57,3.93 0,1.54 -0.52,2.87 -1.57,3.94 z m -6.78,-0.89 c 0.79,0.8 1.75,1.19 2.89,1.19 1.14,0 2.1,-0.4 2.89,-1.19 0.79,-0.8 1.18,-1.81 1.18,-3.05 0,-1.24 -0.4,-2.26 -1.18,-3.05 -0.78,-0.8 -1.75,-1.19 -2.89,-1.19 -1.14,0 -2.1,0.4 -2.89,1.19 -0.78,0.8 -1.18,1.81 -1.18,3.05 0,1.24 0.4,2.26 1.18,3.05 z"
       id="path7"
       style="fill:#000000" />
    <path
       class="st2"
       d="M 133.79,23.03 V 12.4 h 1.66 l 5.17,8.27 h 0.06 l -0.06,-2.05 V 12.4 h 1.37 v 10.63 h -1.43 l -5.41,-8.67 h -0.06 l 0.06,2.05 v 6.62 h -1.37 v 0 z"
       id="path8"
       style="fill:#000000" />
  </g>
  <path
     class="st3"
     d="m 68.136021,21.752504 c -2.353605,0 -4.266967,1.789191 -4.266967,4.250035 0,2.460844 1.919006,4.250035 4.266967,4.250035 2.347961,0 4.266968,-1.806124 4.266968,-4.250035 0,-2.443911 -1.919007,-4.250035 -4.266968,-4.250035 z m 0,6.829405 c -1.286863,0 -2.398758,-1.061097 -2.398758,-2.57937 0,-1.518273 1.111895,-2.579371 2.398758,-2.579371 1.286863,0 2.398758,1.044166 2.398758,2.579371 0,1.535205 -1.111895,2.57937 -2.398758,2.57937 z m -9.312826,-6.829405 c -2.353605,0 -4.266967,1.789191 -4.266967,4.250035 0,2.460844 1.919006,4.250035 4.266967,4.250035 2.347961,0 4.266968,-1.806124 4.266968,-4.250035 0,-2.443911 -1.919007,-4.250035 -4.266968,-4.250035 z m 0,6.829405 c -1.286863,0 -2.398758,-1.061097 -2.398758,-2.57937 0,-1.518273 1.111895,-2.579371 2.398758,-2.579371 1.286863,0 2.398758,1.044166 2.398758,2.579371 0,1.535205 -1.111895,2.57937 -2.398758,2.57937 z m -11.079441,-5.52561 v 1.806124 h 4.317765 c -0.129815,1.015945 -0.468463,1.755327 -0.98208,2.274587 -0.626499,0.6265 -1.608579,1.320728 -3.335685,1.320728 -2.658388,0 -4.735431,-2.144772 -4.735431,-4.80316 0,-2.658389 2.077043,-4.803161 4.735431,-4.803161 1.433611,0 2.483421,0.564414 3.251023,1.286864 l 1.275575,-1.275575 c -1.07803,-1.032877 -2.511641,-1.817412 -4.526598,-1.817412 -3.640468,0 -6.69959,2.963171 -6.69959,6.60364 0,3.640468 3.059122,6.60364 6.69959,6.60364 1.96416,0 3.448568,-0.643432 4.605616,-1.851277 1.190913,-1.190913 1.563426,-2.867222 1.563426,-4.221814 0,-0.417667 -0.03386,-0.807112 -0.09595,-1.128828 h -6.073092 v 0 z m 45.305487,1.399746 c -0.35558,-0.948215 -1.43361,-2.709185 -3.640468,-2.709185 -2.206857,0 -4.012981,1.721461 -4.012981,4.250035 0,2.381826 1.806124,4.250035 4.221814,4.250035 1.947227,0 3.076055,-1.190913 3.544518,-1.885142 l -1.450543,-0.965147 c -0.485396,0.711161 -1.14576,1.17398 -2.093975,1.17398 -0.948215,0 -1.625511,-0.434598 -2.06011,-1.286863 l 5.68929,-2.353605 -0.1919,-0.485396 v 0 z m -5.802172,1.416679 c -0.0508,-1.642444 1.275575,-2.483421 2.22379,-2.483421 0.739382,0 1.371525,0.372513 1.580358,0.903062 z m -4.622548,4.125864 H 84.49273 V 17.496824 h -1.868209 z m -3.059123,-7.297869 h -0.06208 c -0.417666,-0.496684 -1.224778,-0.948215 -2.240723,-0.948215 -2.127839,0 -4.075066,1.868209 -4.075066,4.266967 0,2.398758 1.947227,4.238747 4.075066,4.238747 1.015945,0 1.817413,-0.451531 2.240723,-0.965147 h 0.06208 v 0.609566 c 0,1.625512 -0.869197,2.494709 -2.274587,2.494709 -1.14576,0 -1.851277,-0.824044 -2.144772,-1.512629 l -1.625511,0.677297 c 0.468463,1.128827 1.710173,2.511641 3.770283,2.511641 2.189925,0 4.041202,-1.286864 4.041202,-4.430648 V 22.00649 h -1.772259 v 0.694229 z m -2.144772,5.88119 c -1.286863,0 -2.370537,-1.07803 -2.370537,-2.562438 0,-1.484408 1.07803,-2.596303 2.370537,-2.596303 1.292508,0 2.274588,1.094963 2.274588,2.596303 0,1.501341 -0.999013,2.562438 -2.274588,2.562438 z M 101.8033,17.496824 h -4.470159 v 12.501764 h 1.86821 v -4.735431 h 2.607589 c 2.06576,0 4.10329,-1.495696 4.10329,-3.883166 0,-2.38747 -2.03189,-3.883167 -4.10329,-3.883167 z m 0.0452,6.027939 h -2.652743 v -4.2839 h 2.652743 c 1.3941,0 2.18428,1.157048 2.18428,2.144772 0,0.987724 -0.79018,2.144772 -2.18428,2.144772 v 0 z m 11.53097,-1.794836 c -1.34895,0 -2.74869,0.592635 -3.33004,1.913363 l 1.65938,0.694228 c 0.35558,-0.694228 1.0103,-0.91435 1.70453,-0.91435 0.96514,0 1.94722,0.581346 1.96416,1.608579 v 0.129815 c -0.33865,-0.1919 -1.0611,-0.485395 -1.94723,-0.485395 -1.78355,0 -3.60096,0.98208 -3.60096,2.816424 0,1.670665 1.46183,2.748695 3.10428,2.748695 1.25299,0 1.94722,-0.564414 2.38182,-1.219134 h 0.0621 V 29.9873 h 1.80048 v -4.791873 c 0,-2.218146 -1.65938,-3.459856 -3.79851,-3.459856 v 0 z m -0.22012,6.846338 c -0.60957,0 -1.46183,-0.304783 -1.46183,-1.061097 0,-0.965148 1.0611,-1.337661 1.97545,-1.337661 0.8184,0 1.20784,0.174968 1.70453,0.417666 -0.14675,1.157048 -1.14012,1.975448 -2.21815,1.975448 z m 10.57711,-6.575419 -2.13912,5.418371 h -0.0621 l -2.21815,-5.418371 h -2.00931 l 3.33004,7.574432 -1.89643,4.21617 h 1.94723 l 5.13052,-11.790602 h -2.07704 z m -16.80259,7.997742 h 1.86821 V 17.496824 h -1.86821 z"
     id="path9"
     style="stroke-width:0.564414;fill:#000000" />
  <g
     id="g13"
     transform="matrix(0.56441369,0,0,0.56441369,0.06208551,0)">
    <path
       class="st6"
       d="M 36.6,34.41 17.74,54.43 c 0,0 0,0 0,0.01 0.58,2.17 2.56,3.77 4.92,3.77 0.94,0 1.83,-0.26 2.58,-0.7 L 25.3,57.47 46.53,45.22 36.59,34.4 Z"
       id="path10" />
    <path
       class="st5"
       d="m 55.68,31 h -0.02 c 0,0 -9.17,-5.33 -9.17,-5.33 l -10.33,9.19 10.36,10.36 9.12,-5.26 c 1.6,-0.86 2.68,-2.55 2.68,-4.49 0,-1.94 -1.07,-3.61 -2.65,-4.47 v 0 z"
       id="path11" />
    <path
       class="st0"
       d="m 17.73,16.44 c -0.11,0.42 -0.17,0.86 -0.17,1.31 v 35.38 c 0,0.45 0.06,0.89 0.17,1.31 L 37.24,34.93 Z"
       id="path12" />
    <path
       class="st4"
       d="M 36.74,35.43 46.5,25.67 25.29,13.37 c -0.77,-0.46 -1.67,-0.73 -2.63,-0.73 -2.36,0 -4.34,1.6 -4.92,3.78 v 0 c 0,0 19,19 19,19 v 0 z"
       id="path13" />
  </g>
</svg>
