<?xml version="1.0" encoding="UTF-8" standalone="no"?>
<svg
   id="artwork"
   version="1.1"
   viewBox="0 0 134.99646 39.999998"
   sodipodi:docname="playstore-fr.svg"
   width="134.99646"
   height="40"
   inkscape:version="1.4 (86a8ad7, 2024-10-11)"
   inkscape:export-filename="playstore-fr.png"
   inkscape:export-xdpi="96"
   inkscape:export-ydpi="96"
   xmlns:inkscape="http://www.inkscape.org/namespaces/inkscape"
   xmlns:sodipodi="http://sodipodi.sourceforge.net/DTD/sodipodi-0.dtd"
   xmlns="http://www.w3.org/2000/svg"
   xmlns:svg="http://www.w3.org/2000/svg">
  <sodipodi:namedview
     id="namedview19"
     pagecolor="#ffffff"
     bordercolor="#000000"
     borderopacity="0.25"
     inkscape:showpageshadow="2"
     inkscape:pageopacity="0.0"
     inkscape:pagecheckerboard="0"
     inkscape:deskcolor="#d1d1d1"
     inkscape:zoom="4.8721597"
     inkscape:cx="98.005819"
     inkscape:cy="33.147518"
     inkscape:window-width="3440"
     inkscape:window-height="1351"
     inkscape:window-x="-9"
     inkscape:window-y="-9"
     inkscape:window-maximized="1"
     inkscape:current-layer="artwork" />
  <!-- Generator: Adobe Illustrator 29.8.3, SVG Export Plug-In . SVG Version: 2.1.1 Build 3)  -->
  <defs
     id="defs1">
    <style
       id="style1">
      .st0 {
        fill: #4285f4;
      }

      .st1 {
        isolation: isolate;
      }

      .st2 {
        fill: #a6a6a6;
      }

      .st3 {
        fill: #34a853;
      }

      .st4 {
        fill: #fbbc04;
      }

      .st5 {
        fill: #fff;
      }

      .st6 {
        fill: #ea4335;
      }
    </style>
  </defs>
  <g
     id="g7"
     transform="matrix(0.56441369,0,0,0.56441369,0.06208551,0)">
    <rect
       x="-0.11"
       y="0"
       width="239.17"
       height="70.870003"
       rx="8.8599997"
       ry="8.8599997"
       id="rect1"
       style="fill:#ffffff" />
    <path
       class="st2"
       d="m 230.21,1.42 c 4.11,0 7.44,3.33 7.44,7.44 v 53.15 c 0,4.11 -3.33,7.44 -7.44,7.44 H 8.75 c -4.11,0 -7.44,-3.33 -7.44,-7.44 V 8.86 c 0,-4.11 3.33,-7.44 7.44,-7.44 h 221.46 m 0,-1.42 H 8.75 C 3.88,0 -0.11,3.99 -0.11,8.86 v 53.15 c 0,4.87 3.99,8.86 8.86,8.86 h 221.46 c 4.87,0 8.86,-3.99 8.86,-8.86 V 8.86 C 239.07,3.99 235.08,0 230.21,0 Z"
       id="path1"
       style="fill:#333333" />
    <path
       class="st5"
       d="m 120.61,38.53 c -4.16,0 -7.56,3.17 -7.56,7.53 0,4.36 3.4,7.53 7.56,7.53 4.16,0 7.56,-3.19 7.56,-7.53 0,-4.34 -3.4,-7.53 -7.56,-7.53 z m 0,12.1 c -2.29,0 -4.25,-1.88 -4.25,-4.57 0,-2.69 1.97,-4.57 4.25,-4.57 2.28,0 4.25,1.86 4.25,4.57 0,2.71 -1.97,4.57 -4.25,4.57 z M 104.1,38.53 c -4.16,0 -7.56,3.17 -7.56,7.53 0,4.36 3.4,7.53 7.56,7.53 4.16,0 7.56,-3.19 7.56,-7.53 0,-4.34 -3.4,-7.53 -7.56,-7.53 z m 0,12.1 c -2.29,0 -4.25,-1.88 -4.25,-4.57 0,-2.69 1.97,-4.57 4.25,-4.57 2.28,0 4.25,1.86 4.25,4.57 0,2.71 -1.97,4.57 -4.25,4.57 z M 84.47,40.85 v 3.19 h 7.65 c -0.23,1.79 -0.83,3.12 -1.74,4.02 -1.12,1.12 -2.85,2.34 -5.9,2.34 -4.71,0 -8.4,-3.79 -8.4,-8.5 0,-4.71 3.69,-8.5 8.4,-8.5 2.53,0 4.39,0.99 5.76,2.29 l 2.25,-2.25 c -1.91,-1.82 -4.45,-3.22 -8.03,-3.22 -6.45,0 -11.87,5.24 -11.87,11.69 0,6.45 5.42,11.69 11.87,11.69 3.49,0 6.11,-1.13 8.17,-3.28 2.11,-2.11 2.76,-5.08 2.76,-7.48 0,-0.74 -0.05,-1.44 -0.18,-2 H 84.46 v 0.02 z m 80.28,2.48 c -0.62,-1.68 -2.53,-4.8 -6.45,-4.8 -3.92,0 -7.1,3.05 -7.1,7.53 0,4.22 3.19,7.53 7.48,7.53 3.45,0 5.46,-2.11 6.27,-3.35 l -2.57,-1.72 c -0.85,1.26 -2.02,2.09 -3.7,2.09 -1.68,0 -2.89,-0.76 -3.65,-2.29 l 10.08,-4.16 -0.34,-0.85 v 0 z m -10.28,2.52 c -0.09,-2.91 2.25,-4.39 3.93,-4.39 1.31,0 2.43,0.66 2.8,1.59 z m -8.18,7.3 h 3.31 V 31 h -3.31 z m -5.43,-12.93 h -0.11 c -0.74,-0.89 -2.16,-1.68 -3.97,-1.68 -3.77,0 -7.23,3.31 -7.23,7.56 0,4.25 3.45,7.51 7.23,7.51 1.79,0 3.22,-0.8 3.97,-1.72 h 0.11 v 1.08 c 0,2.89 -1.54,4.43 -4.02,4.43 -2.02,0 -3.28,-1.45 -3.79,-2.68 l -2.89,1.2 c 0.83,2 3.03,4.45 6.68,4.45 3.88,0 7.16,-2.29 7.16,-7.85 V 38.98 h -3.14 c 0,0 0,1.22 0,1.22 z m -3.79,10.41 c -2.29,0 -4.2,-1.91 -4.2,-4.54 0,-2.63 1.91,-4.59 4.2,-4.59 2.29,0 4.02,1.95 4.02,4.59 0,2.64 -1.77,4.54 -4.02,4.54 z M 180.27,31 h -7.92 v 22.15 h 3.31 v -8.4 h 4.62 c 3.67,0 7.26,-2.66 7.26,-6.87 0,-4.21 -3.6,-6.87 -7.26,-6.87 h -0.02 z m 0.07,10.67 h -4.69 v -7.58 h 4.69 c 2.46,0 3.88,2.06 3.88,3.79 0,1.73 -1.4,3.79 -3.88,3.79 z m 20.44,-3.17 c -2.39,0 -4.87,1.05 -5.9,3.38 l 2.94,1.22 c 0.62,-1.22 1.79,-1.63 3.03,-1.63 1.7,0 3.45,1.03 3.47,2.85 v 0.23 c -0.6,-0.34 -1.88,-0.85 -3.45,-0.85 -3.17,0 -6.38,1.74 -6.38,5 0,2.96 2.59,4.87 5.49,4.87 2.21,0 3.45,-0.99 4.22,-2.16 h 0.11 v 1.72 h 3.19 v -8.49 c 0,-3.93 -2.94,-6.13 -6.73,-6.13 v 0 l 0.02,-0.02 z m -0.41,12.13 c -1.08,0 -2.59,-0.55 -2.59,-1.88 0,-1.72 1.88,-2.37 3.51,-2.37 1.45,0 2.14,0.32 3.03,0.74 -0.25,2.06 -2.02,3.51 -3.93,3.51 z m 18.75,-11.65 -3.79,9.6 h -0.11 l -3.93,-9.6 h -3.56 l 5.9,13.41 -3.37,7.46 h 3.45 l 9.09,-20.89 h -3.69 v 0.02 z m -29.77,14.17 h 3.31 V 31 h -3.31 z"
       id="path2"
       style="fill:#000000" />
    <g
       id="g6">
      <path
         class="st6"
         d="M 36.6,34.41 17.73,54.43 v 0 c 0.58,2.18 2.57,3.77 4.93,3.77 0.94,0 1.82,-0.25 2.59,-0.71 L 25.3,57.45 46.52,45.19 36.58,34.37 Z"
         id="path3" />
      <path
         class="st4"
         d="m 55.68,31 h -0.02 l -9.16,-5.33 -10.33,9.19 10.36,10.36 9.12,-5.26 c 1.59,-0.87 2.68,-2.55 2.68,-4.48 0,-1.93 -1.06,-3.61 -2.66,-4.46 v 0 V 31 Z"
         id="path4" />
      <path
         class="st0"
         d="m 17.73,16.44 c -0.11,0.43 -0.18,0.85 -0.18,1.31 v 35.38 c 0,0.46 0.05,0.89 0.18,1.31 L 37.24,34.93 c 0,0 -19.51,-18.5 -19.51,-18.5 z"
         id="path5" />
      <path
         class="st3"
         d="M 36.74,35.43 46.5,25.67 25.29,13.37 c -0.78,-0.46 -1.67,-0.73 -2.64,-0.73 -2.36,0 -4.34,1.59 -4.93,3.77 v 0 l 19.01,19.01 v 0 z"
         id="path6" />
    </g>
  </g>
  <g
     class="st1"
     id="g19"
     style="fill:#000000"
     transform="matrix(0.56441369,0,0,0.56441369,0.06208551,0)">
    <path
       class="st5"
       d="m 73.93,12.22 h 3.53 c 1.13,0 2.14,0.23 2.99,0.69 0.85,0.46 1.51,1.12 1.97,1.95 0.46,0.83 0.69,1.79 0.69,2.87 0,1.08 -0.23,2.04 -0.69,2.87 -0.46,0.83 -1.12,1.49 -1.97,1.95 -0.85,0.46 -1.84,0.69 -2.99,0.69 H 73.93 V 12.2 Z m 3.51,9.39 c 1.24,0 2.2,-0.34 2.89,-1.03 0.69,-0.69 1.05,-1.63 1.05,-2.83 0,-1.2 -0.35,-2.14 -1.05,-2.83 -0.7,-0.69 -1.67,-1.03 -2.89,-1.03 h -1.77 v 7.74 h 1.77 z"
       id="path7"
       style="fill:#000000" />
    <path
       class="st5"
       d="m 85.07,12.22 h 1.72 v 11.04 h -1.72 z"
       id="path8"
       style="fill:#000000" />
    <path
       class="st5"
       d="M 90.04,22.71 C 89.31,22.18 88.8,21.43 88.53,20.46 l 1.63,-0.66 c 0.16,0.6 0.46,1.1 0.87,1.49 0.41,0.39 0.92,0.58 1.51,0.58 0.55,0 1.01,-0.14 1.38,-0.43 0.37,-0.29 0.57,-0.67 0.57,-1.17 0,-0.46 -0.16,-0.83 -0.5,-1.12 -0.34,-0.29 -0.92,-0.58 -1.75,-0.89 l -0.69,-0.25 c -0.74,-0.25 -1.36,-0.62 -1.86,-1.12 -0.5,-0.48 -0.76,-1.12 -0.76,-1.91 0,-0.55 0.14,-1.05 0.44,-1.51 0.3,-0.46 0.71,-0.83 1.24,-1.1 0.53,-0.27 1.13,-0.41 1.79,-0.41 0.97,0 1.74,0.23 2.32,0.71 0.58,0.48 0.96,0.99 1.15,1.58 l -1.56,0.66 c -0.11,-0.35 -0.34,-0.66 -0.66,-0.92 -0.32,-0.26 -0.73,-0.41 -1.24,-0.41 -0.51,0 -0.92,0.12 -1.28,0.39 -0.35,0.27 -0.51,0.58 -0.51,0.99 0,0.37 0.16,0.69 0.46,0.94 0.3,0.25 0.8,0.48 1.45,0.71 l 0.69,0.23 c 0.94,0.34 1.68,0.76 2.2,1.29 0.52,0.53 0.78,1.24 0.78,2.13 0,0.73 -0.18,1.33 -0.55,1.81 -0.37,0.5 -0.83,0.85 -1.42,1.08 -0.57,0.23 -1.15,0.35 -1.77,0.35 -0.92,0 -1.74,-0.27 -2.46,-0.8 l 0.04,-0.02 z"
       id="path9"
       style="fill:#000000" />
    <path
       class="st5"
       d="m 98.22,12.22 h 3.83 c 0.66,0 1.24,0.14 1.79,0.43 0.55,0.28 0.99,0.69 1.31,1.2 0.32,0.51 0.48,1.1 0.48,1.74 0,0.64 -0.16,1.22 -0.48,1.74 -0.32,0.52 -0.76,0.92 -1.31,1.2 -0.55,0.28 -1.15,0.43 -1.79,0.43 h -2.09 v 4.29 H 98.24 V 12.21 l -0.02,0.02 z m 3.84,5.12 c 0.37,0 0.71,-0.09 0.99,-0.25 0.28,-0.18 0.5,-0.39 0.64,-0.66 0.14,-0.27 0.21,-0.55 0.21,-0.83 0,-0.28 -0.07,-0.57 -0.21,-0.83 -0.14,-0.27 -0.35,-0.48 -0.64,-0.66 -0.28,-0.16 -0.6,-0.25 -0.99,-0.25 h -2.13 v 3.47 c 0,0 2.13,0 2.13,0 z"
       id="path10"
       style="fill:#000000" />
    <path
       class="st5"
       d="m 109.51,22.75 c -0.87,-0.51 -1.56,-1.2 -2.06,-2.09 -0.5,-0.89 -0.74,-1.86 -0.74,-2.91 0,-1.05 0.25,-2.02 0.74,-2.91 0.49,-0.89 1.19,-1.58 2.06,-2.09 0.87,-0.51 1.84,-0.76 2.91,-0.76 1.07,0 2.04,0.25 2.91,0.76 0.87,0.51 1.56,1.2 2.06,2.09 0.5,0.89 0.76,1.84 0.76,2.91 0,1.07 -0.25,2.04 -0.74,2.91 -0.5,0.89 -1.19,1.58 -2.06,2.09 -0.87,0.51 -1.84,0.76 -2.91,0.76 -1.07,0 -2.04,-0.25 -2.91,-0.76 z m 4.92,-1.4 c 0.6,-0.35 1.08,-0.83 1.44,-1.45 0.35,-0.62 0.53,-1.33 0.53,-2.14 0,-0.81 -0.18,-1.51 -0.53,-2.14 -0.35,-0.63 -0.83,-1.1 -1.44,-1.45 -0.61,-0.35 -1.28,-0.53 -2,-0.53 -0.72,0 -1.4,0.18 -2,0.53 -0.6,0.35 -1.08,0.83 -1.44,1.45 -0.36,0.62 -0.53,1.33 -0.53,2.14 0,0.81 0.18,1.51 0.53,2.14 0.35,0.62 0.83,1.1 1.44,1.45 0.61,0.35 1.28,0.53 2,0.53 0.72,0 1.4,-0.18 2,-0.53 z"
       id="path11"
       style="fill:#000000" />
    <path
       class="st5"
       d="m 120.12,12.22 h 2.06 l 4.93,8.03 h 0.09 l -0.09,-2.13 v -5.9 h 1.72 v 11.04 h -1.81 l -5.17,-8.45 h -0.09 l 0.09,2.13 v 6.32 h -1.72 c 0,0 0,-11.04 0,-11.04 z"
       id="path12"
       style="fill:#000000" />
    <path
       class="st5"
       d="m 131.33,12.22 h 1.72 v 11.04 h -1.72 z"
       id="path13"
       style="fill:#000000" />
    <path
       class="st5"
       d="m 135.57,12.22 h 4.15 c 0.58,0 1.13,0.12 1.63,0.39 0.5,0.27 0.9,0.6 1.19,1.06 0.3,0.44 0.44,0.96 0.44,1.49 0,0.53 -0.14,1.01 -0.41,1.42 -0.27,0.41 -0.64,0.71 -1.06,0.9 v 0.09 c 0.55,0.19 1.01,0.51 1.35,0.97 0.34,0.46 0.51,0.97 0.51,1.59 0,0.62 -0.16,1.15 -0.48,1.61 -0.32,0.48 -0.73,0.83 -1.26,1.1 -0.53,0.27 -1.1,0.39 -1.74,0.39 h -4.34 V 12.19 l 0.02,0.02 z m 4.07,4.63 c 0.5,0 0.89,-0.16 1.19,-0.46 0.3,-0.3 0.46,-0.66 0.46,-1.06 0,-0.4 -0.14,-0.74 -0.44,-1.06 -0.3,-0.3 -0.67,-0.46 -1.15,-0.46 h -2.41 v 3.03 h 2.34 l 0.02,0.02 z m 0.27,4.82 c 0.53,0 0.94,-0.16 1.26,-0.5 0.32,-0.34 0.46,-0.71 0.46,-1.13 0,-0.42 -0.16,-0.81 -0.48,-1.15 -0.32,-0.32 -0.76,-0.48 -1.31,-0.48 h -2.55 v 3.26 z"
       id="path14"
       style="fill:#000000" />
    <path
       class="st5"
       d="m 145.26,12.22 h 1.72 v 9.39 h 4.73 v 1.65 h -6.47 V 12.22 Z"
       id="path15"
       style="fill:#000000" />
    <path
       class="st5"
       d="m 153.46,12.22 h 6.71 v 1.65 h -4.98 v 3.05 h 4.48 v 1.63 h -4.48 v 3.05 h 4.98 v 1.65 h -6.71 v -11.04 0.02 z"
       id="path16"
       style="fill:#000000" />
    <path
       class="st5"
       d="m 166.16,22.71 c -0.73,-0.53 -1.24,-1.28 -1.51,-2.25 l 1.63,-0.66 c 0.16,0.6 0.46,1.1 0.87,1.49 0.41,0.39 0.92,0.58 1.51,0.58 0.55,0 1.01,-0.14 1.38,-0.43 0.37,-0.29 0.57,-0.67 0.57,-1.17 0,-0.46 -0.16,-0.83 -0.5,-1.12 -0.34,-0.29 -0.92,-0.58 -1.75,-0.89 l -0.69,-0.25 c -0.74,-0.25 -1.36,-0.62 -1.86,-1.12 -0.5,-0.48 -0.76,-1.12 -0.76,-1.91 0,-0.55 0.14,-1.05 0.44,-1.51 0.3,-0.46 0.71,-0.83 1.24,-1.1 0.53,-0.27 1.13,-0.41 1.79,-0.41 0.96,0 1.74,0.23 2.3,0.71 0.58,0.46 0.96,0.99 1.15,1.58 l -1.56,0.66 c -0.11,-0.35 -0.34,-0.66 -0.66,-0.92 -0.32,-0.26 -0.73,-0.41 -1.24,-0.41 -0.51,0 -0.92,0.12 -1.28,0.39 -0.35,0.27 -0.51,0.58 -0.51,0.99 0,0.37 0.16,0.69 0.46,0.94 0.3,0.25 0.8,0.48 1.45,0.71 l 0.69,0.23 c 0.94,0.34 1.68,0.76 2.2,1.29 0.52,0.53 0.78,1.24 0.78,2.13 0,0.73 -0.18,1.33 -0.55,1.81 -0.37,0.5 -0.83,0.85 -1.42,1.08 -0.57,0.23 -1.15,0.35 -1.77,0.35 -0.92,0 -1.74,-0.27 -2.46,-0.8 l 0.05,-0.02 z"
       id="path17"
       style="fill:#000000" />
    <path
       class="st5"
       d="m 176.14,22.96 c -0.64,-0.37 -1.12,-0.89 -1.47,-1.58 -0.35,-0.69 -0.53,-1.47 -0.53,-2.36 v -6.8 h 1.72 v 6.89 c 0,0.81 0.21,1.47 0.64,1.98 0.43,0.51 1.03,0.76 1.82,0.76 0.79,0 1.4,-0.25 1.82,-0.76 0.43,-0.5 0.64,-1.17 0.64,-1.98 v -6.89 h 1.72 v 6.8 c 0,0.89 -0.18,1.67 -0.51,2.34 -0.33,0.67 -0.81,1.2 -1.45,1.58 -0.62,0.37 -1.36,0.57 -2.21,0.57 -0.85,0 -1.56,-0.18 -2.18,-0.55 z"
       id="path18"
       style="fill:#000000" />
    <path
       class="st5"
       d="m 184.82,12.22 h 3.88 c 0.66,0 1.26,0.14 1.81,0.43 0.55,0.29 0.97,0.69 1.29,1.2 0.32,0.51 0.46,1.1 0.46,1.74 0,0.74 -0.23,1.4 -0.71,1.97 -0.48,0.57 -1.08,0.96 -1.79,1.15 v 0.07 l 3.01,4.36 v 0.09 h -2 l -2.91,-4.32 h -1.29 v 4.32 h -1.72 V 12.19 l -0.04,0.04 z m 3.84,5.12 c 0.51,0 0.96,-0.16 1.31,-0.5 0.35,-0.34 0.53,-0.74 0.53,-1.26 0,-0.28 -0.07,-0.57 -0.21,-0.83 -0.14,-0.27 -0.35,-0.48 -0.62,-0.66 -0.27,-0.18 -0.58,-0.25 -0.96,-0.25 h -2.18 v 3.49 h 2.13 z"
       id="path19"
       style="fill:#000000" />
  </g>
</svg>
