<?xml version="1.0" encoding="UTF-8" standalone="no"?>
<svg
   id="artwork"
   version="1.1"
   viewBox="0 0 135 39.999998"
   sodipodi:docname="playstore-es.svg"
   inkscape:version="1.4 (86a8ad7, 2024-10-11)"
   width="135"
   height="40"
   xmlns:inkscape="http://www.inkscape.org/namespaces/inkscape"
   xmlns:sodipodi="http://sodipodi.sourceforge.net/DTD/sodipodi-0.dtd"
   xmlns="http://www.w3.org/2000/svg"
   xmlns:svg="http://www.w3.org/2000/svg">
  <sodipodi:namedview
     id="namedview18"
     pagecolor="#ffffff"
     bordercolor="#000000"
     borderopacity="0.25"
     inkscape:showpageshadow="2"
     inkscape:pageopacity="0.0"
     inkscape:pagecheckerboard="0"
     inkscape:deskcolor="#d1d1d1"
     inkscape:zoom="6.8902743"
     inkscape:cx="148.68784"
     inkscape:cy="56.23869"
     inkscape:window-width="3440"
     inkscape:window-height="1351"
     inkscape:window-x="-9"
     inkscape:window-y="-9"
     inkscape:window-maximized="1"
     inkscape:current-layer="artwork" />
  <!-- Generator: Adobe Illustrator 29.8.3, SVG Export Plug-In . SVG Version: 2.1.1 Build 3)  -->
  <defs
     id="defs1">
    <style
       id="style1">
      .st0 {
        fill: #4285f4;
      }

      .st1 {
        isolation: isolate;
      }

      .st2 {
        fill: #a6a6a6;
      }

      .st3 {
        fill: #34a853;
      }

      .st4 {
        fill: #fbbc04;
      }

      .st5 {
        fill: #fff;
      }

      .st6 {
        fill: #ea4335;
      }
    </style>
  </defs>
  <g
     id="g7"
     transform="scale(0.56497173)">
    <rect
       y="0"
       width="238.96001"
       height="70.800003"
       rx="8.8500004"
       ry="8.8500004"
       id="rect1"
       x="0"
       style="fill:#ffffff" />
    <path
       class="st2"
       d="m 230.11,1.42 c 4.11,0 7.43,3.33 7.43,7.43 v 53.1 c 0,4.11 -3.33,7.43 -7.43,7.43 H 8.85 c -4.11,0 -7.43,-3.33 -7.43,-7.43 V 8.85 c 0,-4.11 3.33,-7.43 7.43,-7.43 h 221.26 m 0,-1.42 H 8.85 C 3.98,0 0,3.98 0,8.85 v 53.1 c 0,4.87 3.98,8.85 8.85,8.85 h 221.26 c 4.87,0 8.85,-3.98 8.85,-8.85 V 8.85 C 238.96,3.98 234.98,0 230.11,0 Z"
       id="path1"
       style="fill:#000000" />
    <path
       class="st5"
       d="m 120.61,38.5 c -4.16,0 -7.56,3.17 -7.56,7.52 0,4.35 3.4,7.52 7.56,7.52 4.16,0 7.56,-3.19 7.56,-7.52 0,-4.33 -3.4,-7.52 -7.56,-7.52 z m 0,12.09 c -2.28,0 -4.25,-1.88 -4.25,-4.57 0,-2.69 1.96,-4.57 4.25,-4.57 2.29,0 4.25,1.86 4.25,4.57 0,2.71 -1.96,4.57 -4.25,4.57 z M 104.12,38.5 c -4.16,0 -7.56,3.17 -7.56,7.52 0,4.35 3.4,7.52 7.56,7.52 4.16,0 7.56,-3.19 7.56,-7.52 0,-4.33 -3.4,-7.52 -7.56,-7.52 z m 0,12.09 c -2.28,0 -4.25,-1.88 -4.25,-4.57 0,-2.69 1.96,-4.57 4.25,-4.57 2.29,0 4.25,1.86 4.25,4.57 0,2.71 -1.96,4.57 -4.25,4.57 z M 84.5,40.82 v 3.19 h 7.65 c -0.23,1.81 -0.83,3.12 -1.73,4.02 -1.12,1.12 -2.85,2.34 -5.89,2.34 -4.71,0 -8.39,-3.79 -8.39,-8.5 0,-4.71 3.68,-8.5 8.39,-8.5 2.53,0 4.39,0.99 5.75,2.28 l 2.25,-2.25 c -1.91,-1.82 -4.44,-3.22 -8.02,-3.22 -6.44,0 -11.86,5.24 -11.86,11.7 0,6.46 5.42,11.7 11.86,11.7 3.49,0 6.11,-1.13 8.16,-3.27 2.11,-2.11 2.76,-5.08 2.76,-7.47 0,-0.74 -0.05,-1.43 -0.18,-2 H 84.51 v -0.02 z m 80.21,2.48 c -0.62,-1.68 -2.53,-4.8 -6.44,-4.8 -3.91,0 -7.1,3.04 -7.1,7.52 0,4.21 3.19,7.52 7.47,7.52 3.45,0 5.45,-2.11 6.27,-3.33 l -2.57,-1.72 c -0.85,1.26 -2.02,2.09 -3.7,2.09 -1.68,0 -2.89,-0.78 -3.65,-2.28 l 10.07,-4.16 -0.34,-0.85 h -0.02 z m -10.27,2.51 c -0.09,-2.9 2.25,-4.39 3.93,-4.39 1.31,0 2.43,0.65 2.8,1.59 z m -8.18,7.29 h 3.31 V 30.97 h -3.31 z m -5.41,-12.92 h -0.11 c -0.74,-0.89 -2.16,-1.68 -3.96,-1.68 -3.77,0 -7.22,3.31 -7.22,7.56 0,4.25 3.45,7.51 7.22,7.51 1.81,0 3.22,-0.8 3.96,-1.72 h 0.11 v 1.08 c 0,2.89 -1.54,4.43 -4.02,4.43 -2.02,0 -3.27,-1.45 -3.79,-2.67 l -2.89,1.2 c 0.83,2 3.03,4.44 6.67,4.44 3.88,0 7.15,-2.28 7.15,-7.84 V 38.97 h -3.13 c 0,0 0,1.22 0,1.22 z m -3.81,10.41 c -2.28,0 -4.2,-1.91 -4.2,-4.53 0,-2.62 1.91,-4.58 4.2,-4.58 2.29,0 4.02,1.95 4.02,4.58 0,2.63 -1.77,4.53 -4.02,4.53 z m 43.17,-19.61 h -7.91 v 22.13 h 3.31 v -8.39 h 4.62 c 3.66,0 7.26,-2.66 7.26,-6.87 0,-4.21 -3.59,-6.87 -7.26,-6.87 z m 0.07,10.65 h -4.69 v -7.59 h 4.69 c 2.48,0 3.88,2.05 3.88,3.79 0,1.74 -1.4,3.79 -3.88,3.79 v 0.02 z m 20.43,-3.17 c -2.39,0 -4.87,1.06 -5.89,3.38 l 2.94,1.22 c 0.62,-1.22 1.79,-1.63 3.01,-1.63 1.7,0 3.45,1.03 3.47,2.85 v 0.23 c -0.6,-0.34 -1.88,-0.85 -3.45,-0.85 -3.17,0 -6.37,1.73 -6.37,4.97 0,2.96 2.58,4.87 5.49,4.87 2.21,0 3.45,-0.99 4.21,-2.16 h 0.11 v 1.72 h 3.19 v -8.48 c 0,-3.93 -2.94,-6.12 -6.73,-6.12 h 0.04 z m -0.41,12.13 c -1.08,0 -2.58,-0.55 -2.58,-1.88 0,-1.7 1.88,-2.35 3.5,-2.35 1.45,0 2.14,0.32 3.01,0.74 -0.25,2.05 -2.02,3.5 -3.93,3.5 v -0.02 z m 18.73,-11.65 -3.79,9.59 h -0.11 l -3.93,-9.59 h -3.56 l 5.89,13.42 -3.36,7.45 h 3.45 l 9.08,-20.87 h -3.68 z M 189.29,53.1 h 3.31 V 30.97 h -3.31 z"
       id="path2"
       style="fill:#000000" />
    <g
       id="g6">
      <path
         class="st6"
         d="m 36.68,34.37 -18.85,20 v 0 c 0.58,2.18 2.57,3.77 4.92,3.77 0.94,0 1.82,-0.25 2.58,-0.71 l 0.05,-0.04 21.21,-12.23 -9.93,-10.82 0.02,0.02 z"
         id="path3" />
      <path
         class="st4"
         d="m 55.74,30.98 h -0.02 l -9.15,-5.33 -10.32,9.19 10.35,10.35 9.12,-5.26 c 1.59,-0.87 2.67,-2.55 2.67,-4.48 0,-1.93 -1.06,-3.61 -2.66,-4.46 v -0.02 z"
         id="path4" />
      <path
         class="st0"
         d="m 17.82,16.43 c -0.11,0.42 -0.18,0.85 -0.18,1.31 v 35.35 c 0,0.46 0.05,0.89 0.18,1.31 L 37.31,34.91 c 0,0 -19.49,-18.48 -19.49,-18.48 z"
         id="path5" />
      <path
         class="st3"
         d="M 36.82,35.4 46.57,25.65 25.38,13.37 c -0.76,-0.46 -1.66,-0.73 -2.64,-0.73 -2.35,0 -4.34,1.61 -4.92,3.77 v 0 l 18.99,18.98 v 0.02 z"
         id="path6" />
    </g>
  </g>
  <g
     class="st1"
     id="g8"
     transform="scale(0.56497173)"
     style="fill:#000000">
    <path
       class="st5"
       d="m 73.98,12.21 h 3.53 c 1.14,0 2.14,0.23 2.99,0.69 0.85,0.46 1.51,1.11 1.96,1.95 0.46,0.84 0.69,1.79 0.69,2.87 0,1.08 -0.23,2.03 -0.69,2.87 -0.46,0.84 -1.11,1.49 -1.96,1.95 -0.85,0.46 -1.85,0.69 -2.99,0.69 H 73.98 V 12.2 Z m 3.49,9.38 c 1.23,0 2.19,-0.34 2.89,-1.03 0.69,-0.68 1.04,-1.63 1.04,-2.84 0,-1.21 -0.35,-2.15 -1.04,-2.83 C 79.67,14.2 78.7,13.86 77.47,13.86 H 75.7 v 7.73 z"
       id="path7"
       style="fill:#000000" />
  </g>
  <g
     class="st1"
     id="g9"
     transform="scale(0.56497173)"
     style="fill:#000000">
    <path
       class="st5"
       d="m 85.36,12.21 h 6.7 v 1.65 h -4.97 v 3.05 h 4.48 v 1.63 h -4.48 v 3.05 h 4.97 v 1.65 h -6.7 z"
       id="path8"
       style="fill:#000000" />
  </g>
  <g
     class="st1"
     id="g10"
     transform="scale(0.56497173)"
     style="fill:#000000">
    <path
       class="st5"
       d="m 94.97,22.69 c -0.73,-0.53 -1.23,-1.28 -1.51,-2.25 l 1.63,-0.66 c 0.16,0.61 0.45,1.1 0.87,1.48 0.42,0.38 0.92,0.58 1.5,0.58 0.54,0 1.01,-0.14 1.39,-0.42 0.38,-0.28 0.57,-0.67 0.57,-1.16 0,-0.45 -0.17,-0.82 -0.5,-1.12 C 98.59,18.84 98,18.55 97.17,18.25 L 96.48,18 c -0.74,-0.26 -1.36,-0.63 -1.86,-1.11 -0.5,-0.48 -0.75,-1.12 -0.75,-1.91 0,-0.54 0.15,-1.05 0.45,-1.51 0.3,-0.46 0.71,-0.83 1.24,-1.1 0.53,-0.27 1.13,-0.41 1.79,-0.41 0.97,0 1.74,0.23 2.31,0.7 0.57,0.47 0.96,0.99 1.15,1.58 l -1.55,0.66 c -0.11,-0.35 -0.33,-0.66 -0.65,-0.92 -0.32,-0.27 -0.73,-0.4 -1.23,-0.4 -0.5,0 -0.93,0.13 -1.27,0.39 -0.34,0.26 -0.52,0.58 -0.52,0.99 0,0.38 0.15,0.69 0.46,0.94 0.31,0.25 0.79,0.48 1.45,0.71 l 0.69,0.23 c 0.94,0.33 1.68,0.76 2.19,1.29 0.51,0.53 0.78,1.23 0.78,2.12 0,0.72 -0.18,1.32 -0.55,1.81 -0.37,0.49 -0.84,0.85 -1.41,1.09 -0.57,0.24 -1.16,0.35 -1.76,0.35 -0.91,0 -1.73,-0.27 -2.46,-0.8 z"
       id="path9"
       style="fill:#000000" />
  </g>
  <g
     class="st1"
     id="g11"
     transform="scale(0.56497173)"
     style="fill:#000000">
    <path
       class="st5"
       d="m 105.53,22.73 c -0.88,-0.5 -1.58,-1.2 -2.08,-2.08 -0.5,-0.88 -0.75,-1.86 -0.75,-2.92 0,-1.06 0.25,-2.04 0.75,-2.93 0.5,-0.89 1.2,-1.58 2.08,-2.08 0.88,-0.5 1.86,-0.75 2.93,-0.75 0.83,0 1.59,0.15 2.27,0.46 0.68,0.31 1.29,0.76 1.81,1.34 l -1.23,1.19 c -0.38,-0.45 -0.8,-0.79 -1.26,-1.01 -0.46,-0.22 -0.99,-0.33 -1.59,-0.33 -0.74,0 -1.41,0.17 -2.03,0.51 -0.61,0.34 -1.1,0.82 -1.45,1.44 -0.36,0.62 -0.54,1.34 -0.54,2.16 0,0.82 0.18,1.54 0.54,2.16 0.36,0.62 0.84,1.1 1.45,1.44 0.61,0.34 1.29,0.51 2.03,0.51 1.23,0 2.28,-0.51 3.14,-1.54 l 1.25,1.2 c -0.53,0.63 -1.18,1.11 -1.92,1.46 -0.75,0.35 -1.57,0.52 -2.46,0.52 -1.07,0 -2.04,-0.25 -2.93,-0.76 z"
       id="path10"
       style="fill:#000000" />
  </g>
  <g
     class="st1"
     id="g12"
     transform="scale(0.56497173)"
     style="fill:#000000">
    <path
       class="st5"
       d="m 118.05,12.21 h 1.97 l 4.14,11.03 h -1.91 l -0.99,-2.82 h -4.45 l -1,2.82 h -1.91 l 4.14,-11.03 z m 2.63,6.61 -1.17,-3.28 -0.43,-1.28 h -0.09 l -0.43,1.28 -1.17,3.28 h 3.3 z"
       id="path11"
       style="fill:#000000" />
  </g>
  <g
     class="st1"
     id="g13"
     transform="scale(0.56497173)"
     style="fill:#000000">
    <path
       class="st5"
       d="m 125.86,12.21 h 3.88 c 0.66,0 1.26,0.15 1.8,0.43 0.54,0.28 0.97,0.69 1.29,1.2 0.32,0.51 0.47,1.09 0.47,1.74 0,0.74 -0.24,1.4 -0.72,1.97 -0.48,0.57 -1.08,0.96 -1.79,1.15 l -0.02,0.08 3.02,4.36 v 0.09 h -2 l -2.91,-4.31 h -1.29 v 4.31 h -1.73 V 12.2 Z m 3.83,5.12 c 0.51,0 0.95,-0.16 1.31,-0.49 0.36,-0.33 0.54,-0.75 0.54,-1.26 0,-0.29 -0.07,-0.56 -0.22,-0.83 -0.14,-0.27 -0.35,-0.48 -0.62,-0.65 -0.27,-0.17 -0.58,-0.25 -0.95,-0.25 h -2.17 v 3.5 h 2.11 z"
       id="path12"
       style="fill:#000000" />
  </g>
  <g
     class="st1"
     id="g14"
     transform="scale(0.56497173)"
     style="fill:#000000">
    <path
       class="st5"
       d="m 137.71,22.73 c -0.88,-0.5 -1.58,-1.19 -2.1,-2.07 -0.52,-0.88 -0.78,-1.86 -0.78,-2.93 0,-1.07 0.26,-2.06 0.78,-2.93 0.52,-0.88 1.22,-1.57 2.1,-2.07 0.88,-0.5 1.85,-0.75 2.9,-0.75 0.83,0 1.61,0.15 2.32,0.45 0.71,0.3 1.32,0.71 1.8,1.25 l -1.2,1.2 c -0.36,-0.4 -0.79,-0.71 -1.29,-0.92 -0.5,-0.22 -1.05,-0.32 -1.66,-0.32 -0.71,0 -1.37,0.17 -1.99,0.51 -0.62,0.34 -1.11,0.82 -1.48,1.45 -0.37,0.63 -0.55,1.35 -0.55,2.16 0,0.81 0.18,1.53 0.55,2.16 0.37,0.63 0.86,1.11 1.48,1.45 0.62,0.34 1.28,0.51 2,0.51 0.66,0 1.21,-0.1 1.65,-0.29 0.44,-0.19 0.84,-0.46 1.19,-0.78 0.23,-0.23 0.42,-0.51 0.58,-0.85 0.16,-0.34 0.26,-0.71 0.32,-1.11 h -3.74 v -1.54 h 5.37 c 0.05,0.29 0.08,0.59 0.08,0.89 0,0.7 -0.11,1.37 -0.32,2.01 -0.22,0.64 -0.56,1.2 -1.03,1.67 -1.04,1.1 -2.4,1.65 -4.08,1.65 -1.05,0 -2.01,-0.25 -2.9,-0.76 z"
       id="path13"
       style="fill:#000000" />
  </g>
  <g
     class="st1"
     id="g15"
     transform="scale(0.56497173)"
     style="fill:#000000">
    <path
       class="st5"
       d="m 150.92,12.21 h 1.97 l 4.14,11.03 h -1.91 l -0.99,-2.82 h -4.45 l -1,2.82 h -1.91 l 4.14,-11.03 z m 2.63,6.61 -1.17,-3.28 -0.43,-1.28 h -0.09 l -0.43,1.28 -1.17,3.28 z"
       id="path14"
       style="fill:#000000" />
  </g>
  <g
     class="st1"
     id="g16"
     transform="scale(0.56497173)"
     style="fill:#000000">
    <path
       class="st5"
       d="m 158.73,12.21 h 3.88 c 0.66,0 1.26,0.15 1.8,0.43 0.54,0.28 0.97,0.69 1.29,1.2 0.32,0.51 0.47,1.09 0.47,1.74 0,0.74 -0.24,1.4 -0.72,1.97 -0.48,0.57 -1.08,0.96 -1.79,1.15 l -0.02,0.08 3.02,4.36 v 0.09 h -2 l -2.91,-4.31 h -1.29 v 4.31 h -1.73 V 12.2 Z m 3.83,5.12 c 0.51,0 0.95,-0.16 1.31,-0.49 0.36,-0.33 0.54,-0.75 0.54,-1.26 0,-0.29 -0.07,-0.56 -0.22,-0.83 -0.14,-0.27 -0.35,-0.48 -0.62,-0.65 -0.27,-0.17 -0.58,-0.25 -0.95,-0.25 h -2.17 v 3.5 h 2.11 z"
       id="path15"
       style="fill:#000000" />
  </g>
  <g
     class="st1"
     id="g17"
     transform="scale(0.56497173)"
     style="fill:#000000">
    <path
       class="st5"
       d="m 171.7,12.21 h 6.7 v 1.65 h -4.97 v 3.05 h 4.48 v 1.63 h -4.48 v 3.05 h 4.97 v 1.65 h -6.7 z"
       id="path16"
       style="fill:#000000" />
  </g>
  <g
     class="st1"
     id="g18"
     transform="scale(0.56497173)"
     style="fill:#000000">
    <path
       class="st5"
       d="m 180.75,12.21 h 2.05 l 4.93,8.02 h 0.09 l -0.09,-2.13 v -5.9 h 1.71 v 11.03 h -1.8 l -5.18,-8.44 h -0.09 l 0.09,2.12 v 6.31 h -1.71 V 12.19 Z"
       id="path17"
       style="fill:#000000" />
  </g>
</svg>
