<?xml version="1.0" encoding="UTF-8" standalone="no"?>
<svg
   id="artwork"
   version="1.1"
   viewBox="0 0 134.99646 39.999998"
   sodipodi:docname="playstore-ru.svg"
   inkscape:version="1.4 (86a8ad7, 2024-10-11)"
   width="134.99646"
   height="40"
   inkscape:export-filename="playstore-ru.png"
   inkscape:export-xdpi="96"
   inkscape:export-ydpi="96"
   xmlns:inkscape="http://www.inkscape.org/namespaces/inkscape"
   xmlns:sodipodi="http://sodipodi.sourceforge.net/DTD/sodipodi-0.dtd"
   xmlns="http://www.w3.org/2000/svg"
   xmlns:svg="http://www.w3.org/2000/svg">
  <sodipodi:namedview
     id="namedview15"
     pagecolor="#ffffff"
     bordercolor="#000000"
     borderopacity="0.25"
     inkscape:showpageshadow="2"
     inkscape:pageopacity="0.0"
     inkscape:pagecheckerboard="0"
     inkscape:deskcolor="#d1d1d1"
     inkscape:zoom="4.8721597"
     inkscape:cx="115.45188"
     inkscape:cy="3.5918363"
     inkscape:window-width="3440"
     inkscape:window-height="1351"
     inkscape:window-x="-9"
     inkscape:window-y="-9"
     inkscape:window-maximized="1"
     inkscape:current-layer="artwork" />
  <!-- Generator: Adobe Illustrator 29.8.3, SVG Export Plug-In . SVG Version: 2.1.1 Build 3)  -->
  <defs
     id="defs1">
    <style
       id="style1">
      .st0 {
        fill: #4285f4;
      }

      .st1 {
        fill: #a6a6a6;
      }

      .st2 {
        stroke: #fff;
        stroke-miterlimit: 10;
        stroke-width: .2px;
      }

      .st2, .st3 {
        fill: #fff;
      }

      .st4 {
        fill: #34a853;
      }

      .st5 {
        fill: #fbbc04;
      }

      .st6 {
        fill: #ea4335;
      }
    </style>
  </defs>
  <g
     id="g7"
     transform="matrix(0.56441369,0,0,0.56441369,0.06208551,0)">
    <rect
       x="-0.11"
       y="0"
       width="239.17"
       height="70.870003"
       rx="8.8599997"
       ry="8.8599997"
       id="rect1"
       style="fill:#ffffff" />
    <path
       class="st1"
       d="m 230.21,1.42 c 4.11,0 7.44,3.33 7.44,7.44 v 53.15 c 0,4.11 -3.33,7.44 -7.44,7.44 H 8.75 c -4.11,0 -7.44,-3.33 -7.44,-7.44 V 8.86 c 0,-4.11 3.33,-7.44 7.44,-7.44 h 221.46 m 0,-1.42 H 8.75 C 3.88,0 -0.11,3.99 -0.11,8.86 v 53.15 c 0,4.87 3.99,8.86 8.86,8.86 h 221.46 c 4.87,0 8.86,-3.99 8.86,-8.86 V 8.86 C 239.07,3.99 235.08,0 230.21,0 Z"
       id="path1"
       style="fill:#1a1a1a" />
    <path
       class="st3"
       d="m 120.61,38.53 c -4.16,0 -7.56,3.17 -7.56,7.53 0,4.36 3.4,7.53 7.56,7.53 4.16,0 7.56,-3.19 7.56,-7.53 0,-4.34 -3.4,-7.53 -7.56,-7.53 z m 0,12.1 c -2.29,0 -4.25,-1.88 -4.25,-4.57 0,-2.69 1.97,-4.57 4.25,-4.57 2.28,0 4.25,1.86 4.25,4.57 0,2.71 -1.97,4.57 -4.25,4.57 z M 104.1,38.53 c -4.16,0 -7.56,3.17 -7.56,7.53 0,4.36 3.4,7.53 7.56,7.53 4.16,0 7.56,-3.19 7.56,-7.53 0,-4.34 -3.4,-7.53 -7.56,-7.53 z m 0,12.1 c -2.29,0 -4.25,-1.88 -4.25,-4.57 0,-2.69 1.97,-4.57 4.25,-4.57 2.28,0 4.25,1.86 4.25,4.57 0,2.71 -1.97,4.57 -4.25,4.57 z M 84.47,40.85 v 3.19 h 7.65 c -0.23,1.81 -0.83,3.12 -1.74,4.02 -1.12,1.12 -2.85,2.34 -5.9,2.34 -4.71,0 -8.4,-3.79 -8.4,-8.5 0,-4.71 3.69,-8.5 8.4,-8.5 2.53,0 4.39,0.99 5.76,2.29 l 2.25,-2.25 c -1.91,-1.82 -4.45,-3.22 -8.03,-3.22 -6.45,0 -11.87,5.24 -11.87,11.71 0,6.47 5.42,11.71 11.87,11.71 3.49,0 6.11,-1.13 8.17,-3.28 2.11,-2.11 2.76,-5.08 2.76,-7.48 0,-0.74 -0.05,-1.44 -0.18,-2 H 84.46 v -0.02 z m 80.28,2.48 c -0.62,-1.68 -2.53,-4.8 -6.45,-4.8 -3.92,0 -7.1,3.05 -7.1,7.53 0,4.22 3.19,7.53 7.48,7.53 3.45,0 5.46,-2.11 6.27,-3.33 l -2.57,-1.72 c -0.85,1.26 -2.02,2.09 -3.7,2.09 -1.68,0 -2.89,-0.78 -3.65,-2.29 l 10.08,-4.16 -0.34,-0.85 z m -10.28,2.52 c -0.09,-2.91 2.25,-4.39 3.93,-4.39 1.31,0 2.43,0.66 2.8,1.59 0,0 -6.73,2.8 -6.73,2.8 z m -8.18,7.3 h 3.31 V 31 h -3.31 z m -5.43,-12.93 h -0.11 c -0.74,-0.89 -2.16,-1.68 -3.97,-1.68 -3.77,0 -7.23,3.31 -7.23,7.56 0,4.25 3.45,7.51 7.23,7.51 1.81,0 3.22,-0.8 3.97,-1.72 h 0.11 v 1.08 c 0,2.89 -1.54,4.43 -4.02,4.43 -2.02,0 -3.28,-1.45 -3.79,-2.68 l -2.89,1.2 c 0.83,2 3.03,4.45 6.68,4.45 3.88,0 7.16,-2.29 7.16,-7.85 V 38.98 h -3.14 c 0,0 0,1.22 0,1.22 z m -3.8,10.41 c -2.29,0 -4.2,-1.91 -4.2,-4.54 0,-2.63 1.91,-4.59 4.2,-4.59 2.29,0 4.02,1.95 4.02,4.59 0,2.64 -1.77,4.54 -4.02,4.54 z M 180.27,31 h -7.92 v 22.15 h 3.31 v -8.4 h 4.62 c 3.67,0 7.26,-2.66 7.26,-6.87 0,-4.21 -3.6,-6.87 -7.26,-6.87 h -0.02 z m 0.07,10.67 h -4.69 v -7.6 h 4.69 c 2.48,0 3.88,2.06 3.88,3.79 0,1.73 -1.4,3.79 -3.88,3.79 z m 20.44,-3.17 c -2.39,0 -4.87,1.06 -5.9,3.38 l 2.94,1.22 c 0.62,-1.22 1.79,-1.63 3.01,-1.63 1.7,0 3.45,1.03 3.47,2.85 v 0.23 c -0.6,-0.34 -1.88,-0.85 -3.45,-0.85 -3.17,0 -6.38,1.74 -6.38,4.98 0,2.96 2.59,4.87 5.49,4.87 2.21,0 3.45,-0.99 4.22,-2.16 h 0.11 v 1.72 h 3.19 v -8.49 c 0,-3.93 -2.94,-6.13 -6.73,-6.13 h 0.04 z m -0.41,12.13 c -1.08,0 -2.59,-0.55 -2.59,-1.88 0,-1.7 1.88,-2.36 3.51,-2.36 1.45,0 2.14,0.32 3.01,0.74 -0.25,2.06 -2.02,3.51 -3.93,3.51 v -0.02 z m 18.75,-11.65 -3.79,9.6 h -0.11 l -3.93,-9.6 h -3.56 l 5.9,13.43 -3.37,7.46 h 3.45 l 9.09,-20.89 h -3.69 z m -29.77,14.17 h 3.31 V 31 h -3.31 z"
       id="path2"
       style="fill:#000000" />
    <g
       id="g6">
      <path
         class="st6"
         d="M 36.6,34.41 17.73,54.43 v 0 c 0.58,2.18 2.57,3.77 4.93,3.77 0.94,0 1.82,-0.25 2.59,-0.71 L 25.3,57.45 46.52,45.21 36.58,34.39 Z"
         id="path3" />
      <path
         class="st5"
         d="m 55.68,31 h -0.02 l -9.16,-5.33 -10.33,9.19 10.36,10.36 9.12,-5.26 c 1.59,-0.87 2.68,-2.55 2.68,-4.48 0,-1.93 -1.06,-3.61 -2.66,-4.46 V 31 Z"
         id="path4" />
      <path
         class="st0"
         d="m 17.73,16.44 c -0.11,0.43 -0.18,0.85 -0.18,1.31 v 35.38 c 0,0.46 0.05,0.89 0.18,1.31 L 37.24,34.93 c 0,0 -19.51,-18.5 -19.51,-18.5 z"
         id="path5" />
      <path
         class="st4"
         d="M 36.74,35.43 46.5,25.67 25.29,13.37 c -0.76,-0.46 -1.67,-0.73 -2.64,-0.73 -2.36,0 -4.34,1.61 -4.93,3.77 v 0 L 36.73,35.4 v 0.02 z"
         id="path6" />
    </g>
  </g>
  <g
     id="g15"
     style="fill:#000000"
     transform="matrix(0.56441369,0,0,0.56441369,0.06208551,0)">
    <path
       class="st2"
       d="m 74.5,25.28 h -1.31 v -3.56 h 1.05 c 0.92,-0.8 1.36,-2.14 1.35,-4.07 v -5.26 h 7.1 v 9.32 h 1.19 v 3.56 h -1.31 v -2.25 h -8.06 v 2.27 z m 2.46,-7.62 c 0.02,1.68 -0.32,3.03 -1.01,4.07 h 5.37 V 13.7 h -4.36 v 3.95 z"
       id="path7"
       style="fill:#000000" />
    <path
       class="st2"
       d="m 94.52,21.65 c -1.05,1.08 -2.34,1.61 -3.9,1.61 -1.56,0 -2.85,-0.53 -3.9,-1.61 -1.05,-1.08 -1.56,-2.39 -1.56,-3.93 0,-1.54 0.51,-2.87 1.56,-3.93 1.05,-1.08 2.34,-1.61 3.9,-1.61 1.56,0 2.83,0.53 3.9,1.61 1.05,1.08 1.58,2.39 1.58,3.93 0,1.54 -0.51,2.87 -1.56,3.93 z m -6.79,-0.89 c 0.78,0.8 1.75,1.19 2.89,1.19 1.14,0 2.11,-0.39 2.89,-1.19 0.78,-0.8 1.19,-1.81 1.19,-3.05 0,-1.24 -0.39,-2.25 -1.19,-3.05 -0.78,-0.8 -1.75,-1.19 -2.89,-1.19 -1.14,0 -2.11,0.39 -2.89,1.19 -0.78,0.8 -1.19,1.81 -1.19,3.05 0,1.24 0.39,2.25 1.19,3.05 z"
       id="path8"
       style="fill:#000000" />
    <path
       class="st2"
       d="m 102.97,23.26 c -1.56,0 -2.87,-0.53 -3.93,-1.59 -1.06,-1.06 -1.59,-2.37 -1.59,-3.97 0,-1.6 0.53,-2.91 1.59,-3.97 1.06,-1.06 2.37,-1.59 3.93,-1.59 1.56,0 2.91,0.58 3.9,1.74 l -0.96,0.92 c -0.73,-0.9 -1.7,-1.35 -2.96,-1.35 -1.15,0 -2.14,0.39 -2.94,1.17 -0.8,0.78 -1.19,1.81 -1.19,3.06 0,1.25 0.39,2.29 1.19,3.06 0.8,0.78 1.77,1.17 2.94,1.17 1.28,0 2.37,-0.51 3.26,-1.54 l 0.96,0.96 c -0.48,0.58 -1.1,1.05 -1.82,1.38 -0.73,0.34 -1.52,0.51 -2.39,0.51 l 0.02,0.04 z"
       id="path9"
       style="fill:#000000" />
    <path
       class="st2"
       d="m 112.71,23.03 h -1.36 v -9.32 h -2.98 V 12.4 h 7.3 v 1.31 h -2.98 v 9.32 z"
       id="path10"
       style="fill:#000000" />
    <path
       class="st2"
       d="m 125.06,12.4 -4.02,8.96 c -0.55,1.26 -1.38,1.9 -2.48,1.9 -0.32,0 -0.67,-0.07 -1.06,-0.23 l 0.35,-1.26 c 0.23,0.12 0.46,0.19 0.71,0.19 0.32,0 0.57,-0.05 0.73,-0.18 0.16,-0.13 0.34,-0.35 0.48,-0.67 l 0.39,-0.85 -3.58,-7.85 h 1.61 l 2.62,6.09 h 0.05 l 2.57,-6.09 h 1.61 l 0.02,-0.02 z"
       id="path11"
       style="fill:#000000" />
    <path
       class="st2"
       d="M 126.6,23.03 V 12.4 h 7.69 v 10.63 h -1.36 v -9.32 h -4.96 v 9.32 h -1.36 z"
       id="path12"
       style="fill:#000000" />
    <path
       class="st2"
       d="M 136.72,23.03 V 12.4 h 1.36 v 4.55 h 5.31 V 12.4 h 1.36 v 10.63 h -1.36 v -4.8 h -5.31 v 4.8 z"
       id="path13"
       style="fill:#000000" />
    <path
       class="st2"
       d="m 155.91,21.65 c -1.05,1.08 -2.34,1.61 -3.9,1.61 -1.56,0 -2.85,-0.53 -3.9,-1.61 -1.05,-1.08 -1.56,-2.39 -1.56,-3.93 0,-1.54 0.51,-2.87 1.56,-3.93 1.05,-1.08 2.34,-1.61 3.9,-1.61 1.56,0 2.83,0.53 3.9,1.61 1.05,1.08 1.58,2.39 1.58,3.93 0,1.54 -0.51,2.87 -1.56,3.93 z m -6.79,-0.89 c 0.78,0.8 1.75,1.19 2.89,1.19 1.14,0 2.11,-0.39 2.89,-1.19 0.78,-0.8 1.19,-1.81 1.19,-3.05 0,-1.24 -0.39,-2.25 -1.19,-3.05 -0.78,-0.8 -1.75,-1.19 -2.89,-1.19 -1.14,0 -2.11,0.39 -2.89,1.19 -0.78,0.8 -1.19,1.81 -1.19,3.05 0,1.24 0.39,2.25 1.19,3.05 z"
       id="path14"
       style="fill:#000000" />
    <path
       class="st2"
       d="M 163.05,23.03 V 12.4 h 3.84 c 0.83,0 1.56,0.28 2.16,0.81 0.6,0.55 0.92,1.24 0.92,2.07 0,0.51 -0.12,0.96 -0.39,1.33 -0.27,0.39 -0.6,0.67 -1.05,0.87 v 0.05 c 0.53,0.18 0.96,0.48 1.29,0.92 0.33,0.44 0.51,0.94 0.51,1.52 0,0.87 -0.32,1.59 -0.96,2.16 -0.64,0.57 -1.4,0.87 -2.27,0.87 h -4.06 l -0.02,0.02 z m 1.36,-6.08 h 2.48 c 0.51,0 0.92,-0.18 1.24,-0.51 0.32,-0.33 0.46,-0.71 0.46,-1.12 0,-0.41 -0.14,-0.78 -0.46,-1.12 -0.3,-0.34 -0.69,-0.51 -1.19,-0.51 h -2.53 z m 0,4.77 h 2.75 c 0.53,0 0.96,-0.18 1.28,-0.55 0.32,-0.37 0.5,-0.76 0.5,-1.2 0,-0.44 -0.16,-0.83 -0.51,-1.19 -0.34,-0.35 -0.78,-0.55 -1.33,-0.55 h -2.69 v 3.49 h 0.02 z"
       id="path15"
       style="fill:#000000" />
  </g>
</svg>
