<?xml version="1.0" encoding="UTF-8" standalone="no"?>
<svg
   id="artwork"
   version="1.1"
   viewBox="0 0 134.99647 39.999998"
   sodipodi:docname="playstore-de.svg"
   width="134.99648"
   height="40"
   inkscape:version="1.4 (86a8ad7, 2024-10-11)"
   inkscape:export-filename="playstore-de.png"
   inkscape:export-xdpi="96"
   inkscape:export-ydpi="96"
   xmlns:inkscape="http://www.inkscape.org/namespaces/inkscape"
   xmlns:sodipodi="http://sodipodi.sourceforge.net/DTD/sodipodi-0.dtd"
   xmlns="http://www.w3.org/2000/svg"
   xmlns:svg="http://www.w3.org/2000/svg">
  <sodipodi:namedview
     id="namedview15"
     pagecolor="#ffffff"
     bordercolor="#000000"
     borderopacity="0.25"
     inkscape:showpageshadow="2"
     inkscape:pageopacity="0.0"
     inkscape:pagecheckerboard="0"
     inkscape:deskcolor="#d1d1d1"
     inkscape:zoom="6.8902743"
     inkscape:cx="153.33207"
     inkscape:cy="42.015744"
     inkscape:window-width="3440"
     inkscape:window-height="1351"
     inkscape:window-x="-9"
     inkscape:window-y="-9"
     inkscape:window-maximized="1"
     inkscape:current-layer="g7" />
  <!-- Generator: Adobe Illustrator 29.8.3, SVG Export Plug-In . SVG Version: 2.1.1 Build 3)  -->
  <defs
     id="defs1">
    <style
       id="style1">
      .st0 {
        fill: #4285f4;
      }

      .st1 {
        isolation: isolate;
      }

      .st2 {
        fill: #a6a6a6;
      }

      .st3 {
        fill: #34a853;
      }

      .st4 {
        fill: #fbbc04;
      }

      .st5 {
        fill: #fff;
      }

      .st6 {
        fill: #ea4335;
      }
    </style>
  </defs>
  <g
     id="g7"
     transform="translate(0.11)">
    <rect
       x="-0.11"
       y="0"
       width="134.99083"
       height="40"
       rx="5.0007052"
       ry="5.0007052"
       id="rect1"
       style="fill:#ffffff;stroke-width:0.564414;fill-opacity:1" />
    <path
       class="st2"
       d="m 129.88576,0.80146744 c 2.31974,0 4.19924,1.87949756 4.19924,4.19923786 V 34.999293 c 0,2.31974 -1.8795,4.199238 -4.19924,4.199238 H 4.8907053 c -2.3197403,0 -4.19923786,-1.879498 -4.19923786,-4.199238 V 5.0007053 c 0,-2.3197403 1.87949756,-4.19923786 4.19923786,-4.19923786 H 129.88576 M 129.88576,0 H 4.8907053 C 2.1420106,0 -0.11,2.2520106 -0.11,5.0007053 V 34.999293 c 0,2.748695 2.2520106,5.000705 5.0007053,5.000705 H 129.88576 c 2.7487,0 5.00071,-2.25201 5.00071,-5.000705 V 5.0007053 C 134.88647,2.2520106 132.63446,0 129.88576,0 Z"
       id="path1"
       style="stroke-width:0.564414;fill:#333333" />
    <path
       class="st5"
       d="m 68.026021,21.74686 c -2.347961,0 -4.266967,1.789191 -4.266967,4.250035 0,2.460843 1.919006,4.250035 4.266967,4.250035 2.347961,0 4.266968,-1.80048 4.266968,-4.250035 0,-2.449556 -1.919007,-4.250035 -4.266968,-4.250035 z m 0,6.829405 c -1.292507,0 -2.398758,-1.061097 -2.398758,-2.57937 0,-1.518273 1.111895,-2.579371 2.398758,-2.579371 1.286863,0 2.398758,1.04981 2.398758,2.579371 0,1.529561 -1.111895,2.57937 -2.398758,2.57937 z m -9.31847,-6.829405 c -2.347961,0 -4.266968,1.789191 -4.266968,4.250035 0,2.460843 1.919007,4.250035 4.266968,4.250035 2.347961,0 4.266968,-1.80048 4.266968,-4.250035 0,-2.449556 -1.919007,-4.250035 -4.266968,-4.250035 z m 0,6.829405 c -1.292507,0 -2.398758,-1.061097 -2.398758,-2.57937 0,-1.518273 1.111895,-2.579371 2.398758,-2.579371 1.286863,0 2.398758,1.04981 2.398758,2.579371 0,1.529561 -1.111895,2.57937 -2.398758,2.57937 z M 47.62811,23.056299 v 1.80048 h 4.317765 c -0.129815,1.021589 -0.468463,1.760971 -0.98208,2.268943 -0.632143,0.632143 -1.608579,1.320728 -3.330041,1.320728 -2.658388,0 -4.741075,-2.139128 -4.741075,-4.797516 0,-2.658389 2.082687,-4.797517 4.741075,-4.797517 1.427967,0 2.477776,0.55877 3.251023,1.292508 l 1.269931,-1.269931 c -1.07803,-1.027233 -2.511641,-1.817412 -4.532242,-1.817412 -3.640468,0 -6.69959,2.957528 -6.69959,6.609284 0,3.651757 3.059122,6.609285 6.69959,6.609285 1.969804,0 3.448568,-0.637788 4.61126,-1.851277 1.190913,-1.190913 1.557782,-2.867222 1.557782,-4.221815 0,-0.417666 -0.02822,-0.812756 -0.101595,-1.128827 h -6.067447 v -0.01129 z m 45.311131,1.399746 C 92.589305,23.50783 91.511275,21.74686 89.298773,21.74686 c -2.212502,0 -4.007337,1.721461 -4.007337,4.250035 0,2.381826 1.80048,4.250035 4.221814,4.250035 1.947228,0 3.081699,-1.190913 3.538874,-1.879498 l -1.450543,-0.970791 c -0.479752,0.711161 -1.140116,1.179624 -2.088331,1.179624 -0.948215,0 -1.631155,-0.440242 -2.06011,-1.292507 l 5.68929,-2.347961 -0.1919,-0.479752 c 0,0 -0.01129,0 -0.01129,0 z m -5.802172,1.422323 c -0.0508,-1.642444 1.269931,-2.477776 2.218146,-2.477776 0.739381,0 1.371525,0.372513 1.580358,0.897417 z m -4.616904,4.12022 h 1.868209 V 17.496824 h -1.868209 z m -3.064767,-7.297869 h -0.06208 c -0.417666,-0.502328 -1.219134,-0.948215 -2.240723,-0.948215 -2.127839,0 -4.080711,1.868209 -4.080711,4.266967 0,2.398758 1.947228,4.238747 4.080711,4.238747 1.021589,0 1.817413,-0.451531 2.240723,-0.970791 h 0.06208 v 0.609566 c 0,1.631156 -0.869197,2.500353 -2.268943,2.500353 -1.140115,0 -1.851277,-0.8184 -2.139128,-1.512629 l -1.631155,0.677297 c 0.468463,1.128827 1.710173,2.511641 3.770283,2.511641 2.189925,0 4.041202,-1.292508 4.041202,-4.430648 v -7.642161 h -1.772259 c 0,0 0,0.688584 0,0.688584 z m -2.144772,5.875546 c -1.292507,0 -2.370537,-1.07803 -2.370537,-2.562438 0,-1.484408 1.07803,-2.590659 2.370537,-2.590659 1.292508,0 2.268943,1.100607 2.268943,2.590659 0,1.490052 -0.999012,2.562438 -2.268943,2.562438 z M 101.69894,17.496824 h -4.470154 v 12.501764 h 1.868209 v -4.741075 h 2.607595 c 2.07139,0 4.09764,-1.501341 4.09764,-3.877522 0,-2.376182 -2.03189,-3.877522 -4.09764,-3.877522 h -0.0113 z m 0.0395,6.022295 h -2.647099 v -4.289544 h 2.647099 c 1.39975,0 2.18993,1.162692 2.18993,2.139127 0,0.976436 -0.79018,2.139128 -2.18993,2.139128 v 0 z m 11.53662,-1.789192 c -1.34895,0 -2.7487,0.598279 -3.33004,1.907718 l 1.65937,0.688585 c 0.34994,-0.688585 1.0103,-0.919994 1.69889,-0.919994 0.9595,0 1.94722,0.581346 1.95851,1.608579 v 0.129815 c -0.33865,-0.191901 -1.06109,-0.479752 -1.94722,-0.479752 -1.7892,0 -3.60096,0.98208 -3.60096,2.810781 0,1.670664 1.46183,2.748694 3.09863,2.748694 1.24735,0 1.94722,-0.558769 2.38182,-1.219133 h 0.0621 v 0.970791 h 1.80048 v -4.791872 c 0,-2.218146 -1.65938,-3.459856 -3.79851,-3.459856 h 0.0226 z m -0.23141,6.846338 c -0.60957,0 -1.46183,-0.310427 -1.46183,-1.061097 0,-0.959504 1.06109,-1.332017 1.98109,-1.332017 0.8184,0 1.20784,0.180613 1.69888,0.417666 -0.1411,1.162693 -1.14011,1.981092 -2.21814,1.981092 v 0 -0.01129 z m 10.58275,-6.575419 -2.13912,5.418371 h -0.0621 l -2.21815,-5.418371 h -2.00931 l 3.33004,7.580076 -1.90207,4.210526 h 1.94723 l 5.13052,-11.790602 c 0,0 -2.08269,0 -2.08269,0 z m -16.80259,7.997742 h 1.86821 V 17.496824 h -1.86821 z"
       id="path2"
       style="fill:#000000;stroke-width:0.564414" />
    <g
       id="g6"
       transform="matrix(0.56441369,0,0,0.56441369,-0.04791449,0)">
      <path
         class="st6"
         d="M 36.6,34.41 17.73,54.43 v 0 c 0.58,2.18 2.57,3.77 4.93,3.77 0.94,0 1.82,-0.25 2.59,-0.71 L 25.3,57.45 46.52,45.21 36.58,34.39 h 0.02 z"
         id="path3" />
      <path
         class="st4"
         d="m 55.68,31 h -0.02 l -9.16,-5.33 -10.33,9.19 10.36,10.36 9.12,-5.26 c 1.59,-0.87 2.68,-2.55 2.68,-4.48 0,-1.93 -1.06,-3.61 -2.66,-4.46 v 0 V 31 Z"
         id="path4" />
      <path
         class="st0"
         d="m 17.73,16.44 c -0.11,0.43 -0.18,0.85 -0.18,1.31 v 35.38 c 0,0.46 0.05,0.89 0.18,1.31 L 37.24,34.93 c 0,0 -19.51,-18.5 -19.51,-18.5 z"
         id="path5" />
      <path
         class="st3"
         d="M 36.74,35.43 46.5,25.67 25.29,13.37 c -0.76,-0.46 -1.67,-0.73 -2.64,-0.73 -2.36,0 -4.34,1.61 -4.93,3.77 v 0 L 36.73,35.4 v 0 0.02 z"
         id="path6" />
    </g>
  </g>
  <g
     class="st1"
     id="g8"
     style="fill:#000000"
     transform="matrix(0.56441369,0,0,0.56441369,0.06208551,0)">
    <path
       class="st5"
       d="m 74.41,22.82 c -0.62,-0.46 -1.06,-1.1 -1.33,-1.91 l 1.59,-0.66 c 0.32,1.08 0.96,1.61 1.93,1.61 0.53,0 0.96,-0.18 1.28,-0.55 0.32,-0.37 0.48,-0.85 0.48,-1.44 v -7.65 h 1.72 v 7.58 c 0,0.78 -0.14,1.45 -0.44,2 -0.3,0.55 -0.71,0.97 -1.24,1.26 -0.53,0.29 -1.12,0.43 -1.79,0.43 -0.85,0 -1.58,-0.23 -2.2,-0.69 z"
       id="path7"
       style="fill:#000000" />
  </g>
  <g
     class="st1"
     id="g9"
     style="fill:#000000"
     transform="matrix(0.56441369,0,0,0.56441369,0.06208551,0)">
    <path
       class="st5"
       d="m 82.79,12.22 h 6.7 v 1.65 h -4.98 v 3.05 h 4.48 v 1.63 h -4.48 v 3.05 h 4.98 v 1.65 h -6.7 v -11.04 0.02 z"
       id="path8"
       style="fill:#000000" />
  </g>
  <g
     class="st1"
     id="g10"
     style="fill:#000000"
     transform="matrix(0.56441369,0,0,0.56441369,0.06208551,0)">
    <path
       class="st5"
       d="m 94.15,13.87 h -3.08 v -1.65 h 7.88 v 1.65 h -3.08 v 9.39 h -1.72 c 0,0 0,-9.39 0,-9.39 z"
       id="path9"
       style="fill:#000000" />
  </g>
  <g
     class="st1"
     id="g11"
     style="fill:#000000"
     transform="matrix(0.56441369,0,0,0.56441369,0.06208551,0)">
    <path
       class="st5"
       d="m 100.22,21.49 5.76,-7.62 h -5.51 v -1.65 h 7.51 v 1.77 l -5.72,7.62 h 5.78 v 1.65 h -7.81 v -1.77 z"
       id="path10"
       style="fill:#000000" />
  </g>
  <g
     class="st1"
     id="g12"
     style="fill:#000000"
     transform="matrix(0.56441369,0,0,0.56441369,0.06208551,0)">
    <path
       class="st5"
       d="m 112.57,13.87 h -3.08 v -1.65 h 7.88 v 1.65 h -3.08 v 9.39 h -1.72 z"
       id="path11"
       style="fill:#000000" />
  </g>
  <g
     class="st1"
     id="g13"
     style="fill:#000000"
     transform="matrix(0.56441369,0,0,0.56441369,0.06208551,0)">
    <path
       class="st5"
       d="m 122.6,12.22 h 4.15 c 0.58,0 1.13,0.12 1.63,0.39 0.5,0.27 0.9,0.6 1.19,1.06 0.3,0.44 0.44,0.96 0.44,1.49 0,0.53 -0.14,1.01 -0.41,1.42 -0.27,0.41 -0.64,0.71 -1.06,0.9 v 0.09 c 0.55,0.19 1.01,0.51 1.35,0.97 0.34,0.46 0.51,0.97 0.51,1.59 0,0.62 -0.16,1.15 -0.48,1.61 -0.32,0.46 -0.74,0.83 -1.26,1.1 -0.53,0.27 -1.1,0.39 -1.74,0.39 h -4.32 v -11.04 0.02 z m 4.07,4.63 c 0.5,0 0.89,-0.16 1.19,-0.46 0.3,-0.3 0.46,-0.66 0.46,-1.06 0,-0.4 -0.14,-0.74 -0.44,-1.06 -0.3,-0.32 -0.67,-0.46 -1.15,-0.46 h -2.41 v 3.03 h 2.34 l 0.02,0.02 z m 0.27,4.8 c 0.53,0 0.94,-0.16 1.26,-0.5 0.32,-0.34 0.48,-0.71 0.48,-1.13 0,-0.42 -0.16,-0.81 -0.48,-1.15 -0.32,-0.32 -0.76,-0.48 -1.29,-0.48 h -2.55 v 3.26 h 2.6 z"
       id="path12"
       style="fill:#000000" />
  </g>
  <g
     class="st1"
     id="g14"
     style="fill:#000000"
     transform="matrix(0.56441369,0,0,0.56441369,0.06208551,0)">
    <path
       class="st5"
       d="m 132.63,12.22 h 6.7 v 1.65 h -4.98 v 3.05 h 4.48 v 1.63 h -4.48 v 3.05 h 4.98 v 1.65 h -6.7 v -11.04 0.02 z"
       id="path13"
       style="fill:#000000" />
  </g>
  <g
     class="st1"
     id="g15"
     style="fill:#000000"
     transform="matrix(0.56441369,0,0,0.56441369,0.06208551,0)">
    <path
       class="st5"
       d="m 141.7,12.22 h 1.72 v 11.04 h -1.72 z"
       id="path14"
       style="fill:#000000" />
  </g>
</svg>
